{
    "asset" : {
        "generator" : "Khronos glTF Blender I/O v1.3.48",
        "version" : "2.0"
    },
    "scene" : 0,
    "scenes" : [
        {
            "name" : "Scene",
            "nodes" : [
                0
            ]
        }
    ],
    "nodes" : [
        {
            "mesh" : 0,
            "name" : "Sphere",
            "rotation" : [
                0,
                1,
                0,
                -4.371138828673793e-08
            ],
            "scale" : [
                15,
                15,
                15
            ],
            "translation" : [
                9.890218734741211,
                0,
                1.52587890625e-05
            ]
        }
    ],
    "meshes" : [
        {
            "name" : "Sphere.002",
            "primitives" : [
                {
                    "attributes" : {
                        "POSITION" : 0,
                        "NORMAL" : 1,
                        "TEXCOORD_0" : 2
                    },
                    "indices" : 3
                }
            ]
        }
    ],
    "accessors" : [
        {
            "bufferView" : 0,
            "componentType" : 5126,
            "count" : 4924,
            "max" : [
                1.0000009536743164,
                0.7331289052963257,
                0.7330007553100586
            ],
            "min" : [
                0.6799759268760681,
                -0.7331290245056152,
                -0.7329989671707153
            ],
            "type" : "VEC3"
        },
        {
            "bufferView" : 1,
            "componentType" : 5126,
            "count" : 4924,
            "type" : "VEC3"
        },
        {
            "bufferView" : 2,
            "componentType" : 5126,
            "count" : 4924,
            "type" : "VEC2"
        },
        {
            "bufferView" : 3,
            "componentType" : 5123,
            "count" : 7614,
            "type" : "SCALAR"
        }
    ],
    "bufferViews" : [
        {
            "buffer" : 0,
            "byteLength" : 59088,
            "byteOffset" : 0
        },
        {
            "buffer" : 0,
            "byteLength" : 59088,
            "byteOffset" : 59088
        },
        {
            "buffer" : 0,
            "byteLength" : 39392,
            "byteOffset" : 118176
        },
        {
            "buffer" : 0,
            "byteLength" : 15228,
            "byteOffset" : 157568
        }
    ],
    "buffers" : [
        {
            "byteLength" : 172796,
            "uri" : "data:application/octet-stream;base64,"
        }
    ]
}
