<svg id="Layer_1" data-name="Layer 1" xmlns="http://www.w3.org/2000/svg" viewBox="0 0 200 200"><defs><style>.cls-1{fill:#e6729f;}.cls-2{fill:#231f20;}</style></defs><rect class="cls-1" x="30.08" y="30.08" width="139.85" height="139.85" rx="69.92"/><path class="cls-2" d="M103.43,92.55c-2.77,1-4.34-.82-6-2.37a33,33,0,0,1-7.51-9.44,2.62,2.62,0,0,1-.19-2c2.84-5.23,5.68-10.47,9.86-14.82a3.89,3.89,0,0,1,3.94-1.35,26.83,26.83,0,0,0,2.84.33,1.22,1.22,0,0,0,1.5-1.1,22.48,22.48,0,0,0,.38-3.74c0-.5-.62-1-1-1.45s-1.1-.51-1.37-.94a50.2,50.2,0,0,1-3.17-5.5,4,4,0,0,1,1.56-5,4.65,4.65,0,0,1,5.9.13,7.48,7.48,0,0,0,1.94,1.2,5.84,5.84,0,0,1,3.77,4.18,16.16,16.16,0,0,1-.19,8.75c-.37,1.21-1,2.1-2.57,1.47a15.24,15.24,0,0,0-.27,2.11c0,1.1.34,2,1.71,2.19a9.94,9.94,0,0,1,7.27,4.52c2.29,3.17,4.63,6.3,7,9.43a2.17,2.17,0,0,1,.26,2.53c-1.48,2.85-2.85,5.76-4.41,8.57-1.16,2.09-1.25,2-3.58,1.45a55.52,55.52,0,0,1,0,7.19c-.83,6.2-1.71,12.4-3,18.52a42.62,42.62,0,0,0-.22,14.64c.89,6.16,2.06,12.26,4.57,18a1.91,1.91,0,0,1-1.06,2.72,31.31,31.31,0,0,1-6.4,2,88.85,88.85,0,0,1-20.67.93c-5.93-.39-11.85-1-17.76-1.69a14,14,0,0,1-4.69-1.78c-1.36-.73-1.33-1.79,0-2.62a13.89,13.89,0,0,1,2.71-1.25c8.4-3.06,16.25-7.08,23-13A39.21,39.21,0,0,0,108,121.42a10.67,10.67,0,0,0,.73-7.1c-1.55-6.19-3-12.39-4.56-18.59C103.92,94.76,103.71,93.79,103.43,92.55Zm18.76-3c1.31-2.78,2.5-5.26,3.63-7.77a1.23,1.23,0,0,0-.15-1.07c-2.18-2.56-4.36-5.13-6.66-7.59a5.89,5.89,0,0,0-2-1c-.62,1.59-1.09,2.9-1.63,4.19-.87,2.07-1.12,4.3.21,6.06C117.47,84.81,119.77,86.94,122.19,89.55ZM100,71.07c-1.71,2.44-3.36,4.82-5,7.18a1.9,1.9,0,0,0-.06,2.4c1.85,2.72,3.67,5.47,5.56,8.16.6.85,3,.6,3.35-.37,1-2.49,1.73-5,.55-7.69C102.92,77.55,101.46,74.36,100,71.07Z"/></svg>