<svg id="Layer_1" data-name="Layer 1" xmlns="http://www.w3.org/2000/svg" viewBox="0 0 200 200"><defs><style>.cls-1{fill:#781d5b;}</style></defs><rect class="cls-1" x="30.08" y="30.08" width="139.85" height="139.85" rx="69.92"/><path d="M94.33,160.6a.55.55,0,0,0-.15-.08c-2.31-.67-2.69-1.24-2.08-3.58a10.39,10.39,0,0,1,1.28-3.05,11,11,0,0,0,1.74-9.37c-1.46-5.15-2-10.44-3-15.68-.15-.85-.39-1.69-.57-2.54a1.18,1.18,0,0,1,.5-1.37,2.54,2.54,0,0,0,.76-1.32,19.1,19.1,0,0,0,.05-7.11c-.63-4.75-1.43-9.47-2.15-14.21a27,27,0,0,1,.31-9.7,16.22,16.22,0,0,1,1.88-4.09c.69-1.24,1.53-2.41,2.34-3.59a3.84,3.84,0,0,0,.57-3.6c-.72-2-1.56-3.92-2.35-5.88l-.3,0c-.06.36-.12.72-.19,1.08-.86,4.2-1.69,8.4-2.59,12.59-.2,1-.8,1.19-1.71.73a8,8,0,0,1-3.23-3c-.65-1.06-1.2-2.2-1.8-3.32-.65-.09-1.42,1.18-2-.14-.46-1,.48-1,1-1.49l-1,.1A1.35,1.35,0,0,1,82,80.47a1.07,1.07,0,0,0,.22-.91c-.54-2-1.11-4-1.73-6a3,3,0,0,0-.87-1.37,10.18,10.18,0,0,1-3.49-6.09l-2.54,2.1c-1.4,1.16-1.41,1.16-2.42-.45,1.13-.94,2.3-1.84,3.4-2.82,1.27-1.12,2.5-2.29,3.71-3.47a1.11,1.11,0,0,0-.38-1.85c-.18-.08-.28-.32-.39-.46l-2.79,1.13c-.58.24-.83,0-1-.54s0-.88.56-1,1.18-.37,1.77-.51a1.94,1.94,0,0,0,1.37-2.52q-2.11-6.15-4.24-12.31c-.28-.79,0-1.24.8-1.33.63-.07.73.38.88.8l3.72,10.8c.26.74.51,1.48.76,2.2l1.62-.31.45,1.2,1.6-.62.16.18c-.11.15-.18.35-.33.44a1.48,1.48,0,0,0-.75,2c.32.94.66,1.88,1,2.88.53-.21,1-.36,1.34.39.57,1.33.6,1.32,2.12,1.21L87,64.72,84.73,66.5l.6,1.84,1.7-.55.18.29-.94.73L86,68.75a12.78,12.78,0,0,1,.14,3c-.32,1.86.63,3.36,1.13,5,.23.74.28,1.27-.45,1.72a.82.82,0,0,0-.23.74c.26.71.19,1.61,1.19,2.13A18.91,18.91,0,0,0,88.24,78c-.1-3-.28-5.93-.56-8.89a13.6,13.6,0,0,1,.67-5,1.47,1.47,0,0,1,.51-.75,3.27,3.27,0,0,0,1.4-2.91c0-1.41-.19-2.83-.27-4.25,0-.58,0-1.17,0-1.76a19.28,19.28,0,0,0-.25-3.14,7.85,7.85,0,0,1-.11-3.82q.66-2.51,1.39-5a6.56,6.56,0,0,1,.62-1.28,2.93,2.93,0,0,1,3.45-1.69c1.82.4,3.71.56,5.5,1.09a7.67,7.67,0,0,1,5.66,7.49c0,.7,0,1.4,0,2.1a14.57,14.57,0,0,0,.89,6,8.7,8.7,0,0,1,.4,2.7c0,1.06.15,1.33,1.14,1.67l1.11.38A4.58,4.58,0,0,1,113,64.56a44.94,44.94,0,0,1,.75,5.4c.26,3.61.39,7.22.58,10.83a4.5,4.5,0,0,0,.27,1.31A45,45,0,0,1,117,95c.2,3,.41,5.93.56,8.89a6,6,0,0,1-.24,2.06,1.17,1.17,0,0,1-1.88.67,3.17,3.17,0,0,1-1.58-2.17.78.78,0,0,1,.32-.68.89.89,0,0,0,.69-.92,20.36,20.36,0,0,0-1.27-10.06c-.84-2.06-2-4.17-2.13-6.32-.3-4.06-1.6-7.9-2-11.91,0-.13-.07-.25-.3-.41-.12.45-.26.91-.35,1.37-.34,1.78-.66,3.58-1,5.37a5.83,5.83,0,0,0,.86,4.27,32.93,32.93,0,0,1,3.88,10.69,5,5,0,0,1,.16,1.91,18.56,18.56,0,0,0,.44,7.16q1.68,8.58,3.34,17.16a5.71,5.71,0,0,0,1.6,3.35,1.64,1.64,0,0,1,.44,1c.41,4.75.74,9.5,1.18,14.25a20.34,20.34,0,0,0,2.19,7.8,7.45,7.45,0,0,0,3.15,3.28c.27.14.52.33.8.46,2.39,1.13,3.09,3.16,3,5.62a2.54,2.54,0,0,1-2.73,2.65c-.33,0-.66.09-1,.13h-1.51c-.27-.06-.54-.13-.81-.17a3.76,3.76,0,0,1-2.63-1.34,2.79,2.79,0,0,0-2.53-1.17,1.74,1.74,0,0,1-1.94-1.85,39.47,39.47,0,0,1,.1-6,21.9,21.9,0,0,0-1.89-12c-.71-1.59-1.33-3.21-2.06-4.79a22.84,22.84,0,0,0-1.64-3.09,2.84,2.84,0,0,1-.49-2.75,5.46,5.46,0,0,0,0-3.78c-.82-2.56-1.76-5.1-2.35-7.71-.91-4.08-2.65-7.84-4.1-11.72a11.29,11.29,0,0,0-2.81-3.6c-.08.74-.18,1.24-.19,1.73q0,2.61,0,5.22.06,7.05.15,14.11a4.38,4.38,0,0,0,.3,1.47,6.67,6.67,0,0,1,.34,4.29,49.35,49.35,0,0,0-1.37,8.78c-.4,4.16-.17,8.24,1.75,12.07.51,1,1,2,1.42,3,.69,1.65.46,2.42-.74,3.7a3.89,3.89,0,0,0-1,1.86,3.84,3.84,0,0,1-1.77,2.73,21.41,21.41,0,0,1-2.12,1Zm-8.9-83a.93.93,0,0,0,.63-1.37c-.57-1.61-1.16-3.21-1.64-4.84-.13-.46-.19-.89-.69-.71s-1,.48-.69,1.12C83.82,73.73,84.63,75.65,85.43,77.59Zm-2.38-9.94.13-.29-.89-1.27c-.33.23-.81.41-1,.73a1.07,1.07,0,0,0,.43,1A3.2,3.2,0,0,0,83.05,67.65ZM80,71.18,78.6,69.39c-.51.8.06,1.3.56,1.77C79.28,71.28,79.6,71.18,80,71.18Z"/></svg>