<svg id="Layer_1" data-name="Layer 1" xmlns="http://www.w3.org/2000/svg" viewBox="0 0 200 200"><defs><style>.cls-1{fill:#e6729f;}</style></defs><rect class="cls-1" x="30.08" y="30.08" width="139.85" height="139.85" rx="69.92"/><path d="M122.23,125.05c-2.2-.45-4.42-.84-6.61-1.36s-4.48-1.21-6.84-1.85l-1.65,4c1.34,3.13,2.78,6.18,4,9.34,1.1,3,.66,3.86-2.31,5.06a23.43,23.43,0,0,1-5.07,1.42c-2.75.45-4.85-.82-5.35-3.58a37.37,37.37,0,0,1-.43-8.19c.11-2.74,2.49-3.46,5-4.22l-2.09-2c2.43.92,4.64,3,6.6-.41l-2.13,1-.36-.39,3.14-3.13c-4.16.5-7.87,2.71-11-.54l5.1.68.11-.52-3.92-1.65.08-.33,5.52,1.07.22-.55c-4.13-1.7-9-2.14-11.88-6.72.69.49,1.07.79,1.47,1,1.55,1,3,2.37,4.69,2.78,5.17,1.24,9.8,3.59,14.42,6.05a5.61,5.61,0,0,0,2.16.27,12,12,0,0,1,3.08.16,33.84,33.84,0,0,1,4.12,2.08Zm-12.45,10.11a16.3,16.3,0,0,0-3.34-7.5c-1.36-1.65-6.67-1-7.35,1a13.28,13.28,0,0,0,.26,9.1Zm-8.38,5.28h3.45l-.42-2.64Z"/><path d="M115.71,63.21l2.39,2A19,19,0,0,0,127,58.26a10.5,10.5,0,0,1-4.81,6c-2.47,1.41-4.75,2.69-4.23,6,3.23-.09,7.22-4,10.06-10-.43,3.52-2.36,6.26-4.81,8.65,2.17-.25,4.24-.52,6.31-.72,1.74-.18,2.52.44,2,2.33-.63,2.21-.73,4.64-2.84,6.28l2-7.53c-4.63-.56-8.28,1.11-12,3.11.23.39.39.7.59,1s.45.51.59.67l6.81-2.93.2.42L120.6,75c2.82,5.22,5,10.59,3.07,16.63h-.78a27.59,27.59,0,0,0,.44-3.48,21.11,21.11,0,0,0-.29-5.58,22.17,22.17,0,0,0-5.59-10.27A2.49,2.49,0,0,1,117,69c.44-.8.15-2.16-.15-3.16a8.64,8.64,0,0,0-1.52-2.19Z"/><path d="M90.67,75.88l-3.43-.27-.32.35,2.85,2.53c-1.4-.42-2.75-.39-3.23-1-2.54-3.34-6.26-4.28-10-4.91a20.73,20.73,0,0,0-6.65.33c-.89.14-1.63,1.17-2.48,1.82,2,2.47,3.8,4.73,5.67,6.93a11.61,11.61,0,0,0,7.59,4.25c1,.12,2.08-.38,3.14-.45a11.64,11.64,0,0,1,2.23.36,10.58,10.58,0,0,1-11.94-1.43,56.37,56.37,0,0,1-7.5-8.3c-1-1.31.11-3,1.4-3.51A27.32,27.32,0,0,1,74.49,71a15.41,15.41,0,0,1,3.65.3l-2-6.63.61-.17c.87,5.67,4.39,8.78,11.34,10.07.87.16,1.73.37,2.6.56Z"/><path d="M80.44,97.71c1.68,4.29,3.59,9.42,5.73,14.46.81,1.91,2.39,3,4.47,4,2.69,1.31,4.71,4.14,6.76,6.54.39.46-.41,1.94-.65,3l-.56-.1,1.3,1.38-.36.61c-1.68-.88-3.34-1.78-5-2.64a27.48,27.48,0,0,1-3.86-2,12.7,12.7,0,0,1-3.07-3.22c-.74-1.11-.89-2.6-1.56-3.78a32.43,32.43,0,0,1-4.29-12.73c.8,2.39,1.45,4.84,2.43,7.14s2.31,4.48,3.56,6.85l2.17-1.42A37.15,37.15,0,0,1,80.44,97.71Zm7.16,21.73c2.09,1.59,4,3.17,6.13,4.55.53.35,1.5,0,2.27,0-.19-.74-.13-1.76-.6-2.16-1.81-1.53-3.79-2.86-5.74-4.3ZM92,117.83a3.39,3.39,0,0,0-4.46-1.19,2.48,2.48,0,0,0-1.66,3c.45,1.81,1.77,2.52,4,2.76l-3.16-2.89C88.17,117.58,89.55,116.18,92,117.83Z"/><path d="M123.48,123.24c2.08-.39,4.16-.9,6.26-1.13a3.67,3.67,0,0,0,2.75-4.61c-.37-.87-.78-2.11-.43-2.82,1.05-2.14-.65-2-1.62-2-3.07-.13-6.15-.05-9.17-.05,2.43-2.34,5.57-.62,8.51-.87L124.25,101l.53-.27c1.13,2,2.14,4.13,3.41,6.06s3,3.9,4.38,5.9a5,5,0,0,1,1.21,2.59,25.89,25.89,0,0,1-.78,6.27c-.79,2.89-3.44,1.37-5.25,1.8a38.28,38.28,0,0,1-4.15.54Z"/><path d="M89.5,66.78c1.84-.91,3.59-2.14,5.53-2.66a113.65,113.65,0,0,1,12-2.48,8.48,8.48,0,0,1,7.77,2.45,10.69,10.69,0,0,1,.76,1.22,4.89,4.89,0,0,1-1.39-.49c-2.93-2.47-6.25-2.6-9.78-1.76-2.33.55-4.7.9-7,1.51-2.58.7-5.12,1.58-7.68,2.39Z"/><path d="M116.9,124.19c1.76,3,4.3,3.1,7.08,2.39,2.55-.65,5.4-.37,7.46-2.5l.52.4c-.4.61-.72,1.65-1.23,1.76a81.27,81.27,0,0,1-10.58,1.83C118,128.24,116.59,126.46,116.9,124.19Z"/><path d="M85.07,79.9l-2,.49,1.2,1.27-.21.27-2.44-1.67,2-.83.15-.53L70.14,75.58C74.25,74.13,84.15,77.15,85.07,79.9Z"/><path d="M105.63,93.59c-3.71-.21-3.89-.32-5.49-3.48C103.53,88.54,105.12,89.54,105.63,93.59Z"/><path d="M79.58,63.58c2.61,4.53,6.89,4.79,11.23,5.16-1.27,1.28-1.65,1.29-4.92.39C82.2,68.11,80.29,66.53,79.58,63.58Z"/><path d="M87.83,98.41l6.31,13.08C90.82,108.2,88.93,103.76,87.83,98.41Z"/><path d="M90.29,126.59c-2.89-1.17-5.68-2.59-7.23-5.65Z"/><path d="M125,118.73c-1.24-.65-2.51-1.26-3.69-2-.26-.16-.2-.82-.29-1.24.49-.1,1.21-.45,1.45-.24a39.3,39.3,0,0,1,2.86,2.91Z"/><path d="M92.7,74.4l-1-5.67A3.58,3.58,0,0,1,92.7,74.4Z"/><path d="M101.65,68.63l-3.12.75-.12-.57,4.22-.88.4.67L100.86,71l-.36-.24Z"/><path d="M93,91.4l-.34-5.58.67-.06v5.58Z"/><path d="M119,93.59l1.78,7.23-.48.12-1.88-7.2Z"/><path d="M105.58,116.57l6.26,3-.25.52-6.19-3.18Z"/><path d="M106.16,128.46l2.46,5.83-.9.38-2.28-5.92Z"/></svg>