<svg id="Layer_1" data-name="Layer 1" xmlns="http://www.w3.org/2000/svg" viewBox="0 0 200 200"><defs><style>.cls-1{fill:#cc1a75;}</style></defs><rect class="cls-1" x="30.08" y="30.08" width="139.85" height="139.85" rx="69.92"/><path d="M72.57,145.54a7.54,7.54,0,0,1,1.52-2.81l12.37-17.25a1.7,1.7,0,0,0,.35-1.07c0-1.93,0-3.86,0-5.79V118H79.47c-1.19,0-1.55-.59-1-1.66L89.7,95c.09-.17.17-.35.29-.59-.76-.1-1.46-.17-2.15-.28a18.24,18.24,0,0,1-9-3.64A9.91,9.91,0,0,1,75,83c-.12-2.64-.37-5.27-.56-7.91-.15-2.14-.32-4.29-.43-6.43a2.1,2.1,0,0,1,1.26-2.09,2.19,2.19,0,0,1,2.43.25,2,2,0,0,1,.85,1.5c.16,1.91.29,3.82.42,5.73.08,1,.15,2.09.23,3.25,1.44-2.68,3.56-4.14,6.57-3.91s4.87,2,5.91,4.88c.07-1.16.13-2.2.19-3.25.07-1.35.13-2.7.2-4.06a1.52,1.52,0,0,1,1.61-1.53c3.81,0,7.62,0,11.43,0a3.72,3.72,0,0,1,3.53,2.23c1.93,3.94,3.86,7.89,5.81,11.82a2.32,2.32,0,0,0,.67.79c2.7,1.92,5.42,3.82,8.12,5.74.91.65,1.79,1.33,2.68,2a3.74,3.74,0,0,1-4.37,6.08c-1.78-1.24-3.52-2.53-5.28-3.79l-6.64-4.68a4.28,4.28,0,0,1-1.4-1.64c-.8-1.67-1.62-3.34-2.44-5,0-.08-.09-.16-.18-.31-.1.21-.18.35-.25.5-1.11,2.43-2.21,4.86-3.33,7.28A4.44,4.44,0,0,0,102,94.1q4.47,11,9,22c.06.14.12.28.17.42a1,1,0,0,1-1,1.47h-5.89c.43,1.33.84,2.62,1.26,3.9,2.46,7.54,4.89,15.09,7.39,22.62a3.9,3.9,0,0,1-2.08,5,3.77,3.77,0,0,1-5-2.43Q104,142,102.34,136.81q-3-9.17-6-18.34c-.12-.38-.28-.51-.67-.48s-.84,0-1.34,0v.62c0,2.41,0,4.81,0,7.22a4.57,4.57,0,0,1-.89,2.79L79.61,148a3.79,3.79,0,0,1-4.88,1.47,3.72,3.72,0,0,1-2.06-2.62c0-.09-.07-.18-.1-.27Z"/><path d="M108.65,58.08a7.9,7.9,0,1,1-7.88-7.91A7.91,7.91,0,0,1,108.65,58.08Z"/><path d="M84.47,63.77A4.34,4.34,0,1,1,80.1,68.1,4.33,4.33,0,0,1,84.47,63.77Z"/></svg>