<svg id="Layer_1" data-name="Layer 1" xmlns="http://www.w3.org/2000/svg" viewBox="0 0 200 200"><defs><style>.cls-1{fill:#f1d4d3;}.cls-2{fill:#ed1c24;}</style></defs><rect class="cls-1" x="30.08" y="30.08" width="139.85" height="139.85" rx="69.92"/><path d="M71.12,132.16c.48-2,.92-3.94,1.48-5.88.38-1.33.71-2.59-.26-3.82,5.45-1.84,7-6.46,8.28-11.26.37-1.38.53-2.81.77-4.22a7.64,7.64,0,0,0,0-1.07l-.29-.06a5.29,5.29,0,0,0-.27.94A28.87,28.87,0,0,1,78,116.72a9.71,9.71,0,0,1-4.59,4.66c-1.32.58-1.47.53-2.39-.57a28.77,28.77,0,0,1-2.22-2.73,30,30,0,0,1-1.6-3.21,27.69,27.69,0,0,0-1.34-2.8,7.6,7.6,0,0,1-.76-5.26c.13-1.1.4-2.18.57-3.28a8.33,8.33,0,0,0-1.29-6.27,4.14,4.14,0,0,0-.8-.7l-.22.24c.23.32.47.63.68,1a8.2,8.2,0,0,1,1,5.87c-.24,1.47-.51,2.94-.64,4.42a20.86,20.86,0,0,0,.1,2.84c-2.73-1.17-5.5-2.33-8.58-1.82l-.07.31a1.62,1.62,0,0,0,.45.16A15,15,0,0,1,64,111.3a4.12,4.12,0,0,1,2.45,2.88,13.19,13.19,0,0,0,3.4,6.07c.69.79,1.35,1.6,2,2.42a2.73,2.73,0,0,1,.49,2.6c-.58,2-1.1,4.1-1.66,6.14s-2,2.43-3.42,1.07a3.24,3.24,0,0,0-3.34-.95c-.86.21-1.11-.09-.94-1a8.55,8.55,0,0,1,.5-1.53c.59-1.42,1.25-1.57,2.43-.56.27.23.47.56.76.72s1,.57,1.33.42a2.24,2.24,0,0,0,1-1.32c.32-1.59-1.38-4.78-2.79-5.59-1.57-.89-3.13-1.82-4.67-2.76a11.3,11.3,0,0,0-5.4-2A2.29,2.29,0,0,1,54,116.32c-1.9-4.94-3.46-10-3.08-15.37a7.66,7.66,0,0,0,0-1l-.29,0a4.22,4.22,0,0,0-.22.9,28.6,28.6,0,0,0,1.4,10.71c.54,1.52,1,3.06,1.57,4.59a3.43,3.43,0,0,0,3.15,2.46,11.08,11.08,0,0,1,3.59,1.14c2.19,1.15,4.28,2.48,6.41,3.74a1.2,1.2,0,0,1,.51.66c-1-.07-2-.13-3.06-.23-6.66-.63-13.24-1.63-19.52-4A25.31,25.31,0,0,1,40,117.75c-2.16-1.36-4.43-2.71-4.5-5.78-.66.56-.66.56-.23,2.2h-1.4c1.73-4.55.8-8.64-2-12.38a13.13,13.13,0,0,0-3.59-3.46l-.25.24c.26.26.5.54.77.78A14.73,14.73,0,0,1,34,108a11.23,11.23,0,0,1-.5,5.54,1.12,1.12,0,0,1-1,.85,5.06,5.06,0,0,0-3.42,2.22,1.21,1.21,0,0,0-.16.83c1-1,1.83-2.13,3.47-2.43-.92,1.09-1.79,2-2.55,3q-1.93,2.59-3.75,5.28a8.23,8.23,0,0,1-3.37,3.11c-.68.31-1.08,1.24-1.57,1.91a9.05,9.05,0,0,1-1.23,1.76,5.6,5.6,0,0,0-2,4.15,16.49,16.49,0,0,1-.57,2.88,2.82,2.82,0,0,0,.26,2.27,15.51,15.51,0,0,1,.76,2.27A14.59,14.59,0,0,1,16,142c-1.61,0-2-.72-1.49-2.9l1.67,1,.17-.22c-.3-.81-1.09-1.07-2.09-1.35.29-.83.55-1.63.87-2.4.61-1.49,1.35-2.94,1.87-4.46a4.77,4.77,0,0,0,.12-2.43,2.89,2.89,0,0,1,.58-2.65c.65-.82,1.26-1.67,1.91-2.5A7.86,7.86,0,0,0,21,120.43a19.64,19.64,0,0,0-.67-8.45,17.39,17.39,0,0,1,.07-9.7,45.67,45.67,0,0,1,2-4.65,15.39,15.39,0,0,0-1.42,1.06,20.47,20.47,0,0,0-5.46,9.44c-.51,1.8-1.2,3.54-1.86,5.29a6.41,6.41,0,0,1-1,1.53c-1.27,1.65-2.79,1.75-4.48.24,2.79-.16,4-2,5-4.25,1.09-2.43,2.24-4.84,3.47-7.2a18.41,18.41,0,0,1,7.33-7.93c.93-.52,1.66-1.38,2.57-2A16.57,16.57,0,0,1,34,91.72c4.64-.48,9.26-1.11,13.89-1.69.44,0,.87-.19,1.31-.27a7.73,7.73,0,0,0,4.95-2.86,19.82,19.82,0,0,1,5.27-4.49c2.6-1.63,4.41-4.09,6.26-6.48,1-1.3,1.15-1.37,2.9-1.3L69,76.15l.31,0a4.68,4.68,0,0,0,0-.74,10.41,10.41,0,0,1,.76-6.5,7.32,7.32,0,0,0,.56-2.3,4.31,4.31,0,0,0-.15-1.21l-.4,0c0,.27,0,.54,0,.81,0,2.32-.47,2.94-2.69,2.77a29.65,29.65,0,0,1-5.7-1,5.82,5.82,0,0,1-4.31-5.47c-.39-3.89,1.23-7,3.72-10A48.05,48.05,0,0,0,60,57.66a23.7,23.7,0,0,0,0,4.91,3,3,0,0,0,2.51,2.67A13,13,0,0,0,71,64.38a10,10,0,0,1,3.21-.8,35.35,35.35,0,0,1,10.41.82c2.38.54,3.4,2.28,2.8,4.66a2.41,2.41,0,0,1-1.24,1.86,2,2,0,0,0-1,2.2L86.65,73c.1,2.07.21,4,.26,5.88a6,6,0,0,1-.23,1.88c-.09.28-.54.45-.83.67-.11-.38-.42-.89-.28-1.11a1.48,1.48,0,0,0-.12-2,.86.86,0,0,0-.77-.17c-1,.67-2,.32-3-.12a4.4,4.4,0,0,0-2.16-.26,1.25,1.25,0,0,0-.75,1c.06.38.55.74.92,1a2.56,2.56,0,0,0,1,.21c.07.68-.26,1.21-.81,1.22-1.47,0-1.59-1.24-1.89-2.49-1.13,1.21-.13,2.74-.89,3.82-1.24-1-2.48-1.92-3.64-2.93a4.88,4.88,0,0,1-1.63-4.2c0-.31,0-.63,0-.94l-.25-.06c-.09.17-.25.32-.27.5a5.62,5.62,0,0,0,2,5.35c1.45,1.18,2.78,2.47,4.11,3.77,1.1,1.08,3,1.29,4.63,1.84a3.39,3.39,0,0,0,1,0c-.71,1.59-.76,3.36-1.89,4.76a7,7,0,0,0-.79,2l.41.16.85-1.81.15,0c-.08.94-.15,1.88-.26,2.81a50.54,50.54,0,0,0,.29,10.36,31.35,31.35,0,0,1-1.38,12.13,12.07,12.07,0,0,1-1.43,2.4,3,3,0,0,0-.29.7,23.3,23.3,0,0,1-5.32,9.24,9.78,9.78,0,0,0-1,1.51c-.44.68-.89,1.35-1.34,2ZM62.69,85.8c-.14.34-.2.41-.18.45a1.44,1.44,0,0,0,.23.4,27.73,27.73,0,0,1,5.93,12.89,25.22,25.22,0,0,0,1.91,5.54,5.93,5.93,0,0,0,2.3,2.13,5.81,5.81,0,0,0,2.06.39l.08-.42a2.13,2.13,0,0,0-.62-.2,3.83,3.83,0,0,1-3.64-2.62,30.94,30.94,0,0,1-1.51-4.88,29.25,29.25,0,0,0-5.14-12.06C63.71,86.89,63.23,86.41,62.69,85.8Zm15,11.07.37,0a4.72,4.72,0,0,0,.11-.74,7,7,0,0,0-1-4.08q-1.36-2.07-2.88-4a26,26,0,0,1-4.61-7.93,1.69,1.69,0,0,0-.31-.46l-.27.1A4.08,4.08,0,0,0,69.31,81c1,1.94,2,3.93,3.23,5.79S75,90,76.22,91.7A7.09,7.09,0,0,1,77.58,96C77.58,96.27,77.65,96.57,77.68,96.87ZM75.14,73c.19-.12.27-.14.28-.18.3-1.16-1-3.46-2.12-3.78-.23-.06-.81.26-.82.42a4,4,0,0,0,.23,2.06c.41.71,1.17.23,1.79,0,0,0,.11,0,.17,0Z"/><path class="cls-2" d="M141.64,90.45l9.42,5.23c2.61,1.46,5.23,2.91,7.82,4.42,3.37,2,6.73,4,10,6a2.89,2.89,0,0,1,1.12,1.64c.76,3.08,1.25,6.23,2.12,9.27a33.53,33.53,0,0,0,8.71,14.56,63.44,63.44,0,0,1,9.2,10.77,13.49,13.49,0,0,1,1.49,3.17c.43,1.38-.16,2.12-1.57,1.89-2.28-.37-4.54-.92-6.78-1.5-3.77-1-7.53-2-11.29-3.06a9.11,9.11,0,0,0-4.43.25c-2.44.53-4.86,1.29-7.34,1.58a18.45,18.45,0,0,1-4.88-.44,22.67,22.67,0,0,1-3.32-.82c-3.17-1-6.37-.83-9.62-.56a54.83,54.83,0,0,1-6.66,0,3.72,3.72,0,0,1-3.3-2.1c-1-1.88-1.92-3.79-2.85-5.7a1,1,0,0,1,0-.79,57.23,57.23,0,0,0,5.27-15.84c1.59-7.67,3.06-15.37,4.61-23.05A8.8,8.8,0,0,1,141.64,90.45Zm22,33.11a5.31,5.31,0,0,0,1.14,0,4.8,4.8,0,0,1,5.08,2.24c.9,1.27,1.78,2.55,2.61,3.86,2.75,4.29,5.67,8.44,9.65,11.71a7.14,7.14,0,0,0,1.82,1.19,1.86,1.86,0,0,0,1.57,0,1.79,1.79,0,0,0,.44-1.52,10.69,10.69,0,0,0-1-2.85,21.79,21.79,0,0,0-5.89-6.65,24.13,24.13,0,0,1-3.87-4c-2.64-3.56-3.67-7.76-4.4-12-.34-2-.63-4.08-1.15-6.06a5.35,5.35,0,0,0-1.55-2.2c-.53-.51-1.12-.39-1.71.12,2.53.11,2.76,2,3.2,3.83,0,.16,0,.32.07.47.44,2.53.78,5.09,1.35,7.59a22,22,0,0,0,8.42,13.4,20.6,20.6,0,0,1,3.89,4,15,15,0,0,1,1.92,3.68,4.66,4.66,0,0,1-.08,1.88,4.8,4.8,0,0,1-1.81-.55,30.55,30.55,0,0,1-4.5-4.22c-2.57-3.29-4.88-6.8-7.34-10.18A23.93,23.93,0,0,0,168.8,124,4.53,4.53,0,0,0,163.67,123.56Zm-2.52,19.83a.82.82,0,0,1-.41,0,3.12,3.12,0,0,1-2.29-2.08c-.56-1.17-1.07-2.37-1.53-3.59a6.47,6.47,0,0,1-.48-2.11,31.91,31.91,0,0,1,.23-4.37,45.4,45.4,0,0,1,4.16-13c1.4-3.06,2.82-6.13,5.35-8.49.07-.07,0-.26,0-.4l-.25-.17a13.12,13.12,0,0,0-1.84,2,89.27,89.27,0,0,0-4.46,8.28c-2.18,5-3.91,10.06-3.79,15.6.07,2.88,1.53,5.24,2.84,7.65a1.41,1.41,0,0,0,.62.59,5.71,5.71,0,0,0,1.84.58c.77,0,1-.54.61-1.23a3.64,3.64,0,0,1-.44-.94c-.64-2.72-1.35-5.43-1.83-8.17a5,5,0,0,1,2-5.4c.13-.09.18-.3.27-.46l-.19-.16a6.61,6.61,0,0,0-1,.64,5.36,5.36,0,0,0-1.67,5.13C159.56,136.73,160.4,140,161.15,143.39ZM142.57,93.15l-.14.36c1,.55,2,1.08,3,1.65,5.13,3,10.26,5.93,15.36,9a8,8,0,0,1,2.05,1.94,2,2,0,0,1,0,2.78c-.12.19-.19.42-.39.85,1.51-.87,2-2.39,1-3.62a11.44,11.44,0,0,0-3.09-2.88c-5.64-3.35-11.36-6.57-17.06-9.82A3.83,3.83,0,0,0,142.57,93.15Zm27.68,44.35v.34a9.8,9.8,0,0,1,5,2.28c.84.63,1.7,1.24,2.47,1.94a12.42,12.42,0,0,0,8.49,3.32c1.32,0,2-.24,2.3-1.07a3.85,3.85,0,0,0-1-3.61c.08.42.13.67.19.91.12.53.32,1,.39,1.57.15,1.17-.39,1.72-1.58,1.69a12.31,12.31,0,0,1-8.21-3,29.63,29.63,0,0,0-3.86-2.92,20.51,20.51,0,0,0-3.27-1.47A2.43,2.43,0,0,0,170.25,137.5ZM136.65,124c-.27.21-.37.25-.4.32a1.4,1.4,0,0,0-.1.46,9,9,0,0,1-2.69,5.52,6.34,6.34,0,0,0,0,9,4,4,0,0,0,.77.49l.18-.23c-.17-.2-.33-.4-.51-.59a5.84,5.84,0,0,1,0-8.41,9.62,9.62,0,0,0,2.69-5.14A8.56,8.56,0,0,0,136.65,124Zm18.29,17.46.15-.31a10.66,10.66,0,0,0-1.5-.85,12,12,0,0,0-7.84-.12,13,13,0,0,1-5.45.4,5.73,5.73,0,0,0-.83,0l0,.31a4.83,4.83,0,0,0,.71.22,13,13,0,0,0,5.82-.39c2.92-.81,5.82-.92,8.56.69C154.63,141.51,154.8,141.48,154.94,141.5Z"/><path d="M132.35,87.51c-1,5.88.73,11.51,1.92,17.22a62.75,62.75,0,0,1,1.15,7.33,12.86,12.86,0,0,1-.62,3.62c-.56,2.54-1.13,5.08-1.76,7.61-.1.39-.51.71-.77,1.07l-.33-.1c-.25-.6-.55-1.19-.75-1.81-1.72-5.25-3.31-10.54-5.16-15.73-1.13-3.16-2.64-6.18-4-9.25a4.27,4.27,0,0,0-.49-.71l-.29.13a6.7,6.7,0,0,0,.24.76c.53,1.08,1.13,2.14,1.61,3.24a2.26,2.26,0,0,1,.11,1.45c-1.08,3.44-2.12,6.9-3.38,10.29a30,30,0,0,0-1.62,7.7c0,.44-.11.88-.18,1.32-.27,1.58-.28,1.69-1.83,1.51a25,25,0,0,1-3.75-.93c-.74-.2-.82-.69-.64-1.4.59-2.4,1.26-4.79,1.63-7.23.46-3.07.62-6.19,1-9.28a92.66,92.66,0,0,1,4.83-20.92,2.26,2.26,0,0,1,1.3-1.16,4.6,4.6,0,0,1,2.52-.24,9.52,9.52,0,0,1,2.82,1.7c.21.16,0,.88-.07,1.34-.26,1.42-.28,1.47,1.14,1.71C128.68,87.05,130.45,87.25,132.35,87.51Z"/><path d="M137.31,66.41l.62.82a9.16,9.16,0,0,0-2.76,8.43,3.86,3.86,0,0,0,4.65,3.2,37.46,37.46,0,0,0,4.29-1.32q.31,3.43.65,7.16l-1-.1,5.6,5.55-.13.27a2.48,2.48,0,0,0-2.54,2.19l-.86-1.84-.26,1-1.9-1c-2.88-1.53-3.93-4.16-4.31-7.19-.1-.82-.15-1.64-.24-2.46a1.24,1.24,0,0,0-.41-.81,1.22,1.22,0,0,0-.17.39,6.51,6.51,0,0,1-5.7,5.91,17.76,17.76,0,0,1-6.65-.66c1-5.17,2.27-10.07,6.44-13.67A17.07,17.07,0,0,0,137.31,66.41Z"/><path d="M47,142.16H41.25c.14-.67.22-1.16.35-1.63.23-.78-.18-1.4-1-1.21-1,.25-1.16-.31-1.32-1a18.83,18.83,0,0,1-.38-2,9.07,9.07,0,0,0-2.7-5.43c-.7-.73-1.45-1.43-2.15-2.16-1.07-1.13-1.14-1.79-.37-3.15a18.88,18.88,0,0,0,1-1.7c.44-1,.78-2,1.17-3.08L39.13,118l4.67,2.4a11.23,11.23,0,0,1-3,3.56c-.74.65-1.5,1.28-2.2,2a2.56,2.56,0,0,0-.74,2.52A10.37,10.37,0,0,0,40.68,134,7.55,7.55,0,0,1,43,137.4a3.19,3.19,0,0,0,.89,1.21c.71.72,1.49,1.38,2.19,2.12A10.75,10.75,0,0,1,47,142.16Z"/><path d="M112.11,123l5,1a11.94,11.94,0,0,1-1.3,4.35c-.69,1.62-1.37,3.26-1.9,4.94a24,24,0,0,0-.49,3.2c-.45,2.55-2.26,3.66-4.77,3l-1.17-.29c1.08,1.74,4.25,1.18,6.31-1a11.39,11.39,0,0,1,.37,1.19c.39,2.15.16,2.31-2,2.48a30.89,30.89,0,0,0-5,.89,6.92,6.92,0,0,1-4,0,7.18,7.18,0,0,1-1.46-.95c1.52-.8,2.87-1.53,4.26-2.2a13.87,13.87,0,0,1,1.47-.43,2.12,2.12,0,0,0,.69-.47,9.75,9.75,0,0,0,2.9-6.35c.34-2.83.64-5.67,1-8.51C112,123.53,112.07,123.19,112.11,123Z"/><path d="M144.26,73.69l-.9.52.09.31a6.1,6.1,0,0,1,.92-.21,8.38,8.38,0,0,1,1.22.06c-.13.46-.11,1.1-.41,1.36a10.24,10.24,0,0,1-5.61,2.6,3.34,3.34,0,0,1-3.86-2.87,8.69,8.69,0,0,1,1.88-7,3.41,3.41,0,0,1,.62-.58c.91-.7,1-.62,1.67.28C141.3,70,142.8,71.84,144.26,73.69Zm-5.56-5.13-.29-.17A4.31,4.31,0,0,0,137,71.11a4.49,4.49,0,0,0,1.66,4.76c1.44,1.06,2.78.13,4.07-.55a1.66,1.66,0,0,0,.44-.35c.07-.07.07-.21.17-.57-.75.38-1.3.68-1.88.94-1.74.78-2.83.37-3.6-1.38a4.79,4.79,0,0,1,.42-4.55C138.4,69.13,138.55,68.85,138.7,68.56Z"/><path d="M132.61,69.4l-.45-1.06,1-1.76-.28-.24a5.16,5.16,0,0,1-3.73,2.52l-1-1.15c.47-.55-.14-.57-.61-.66.26-1-.25-1.33-1.11-1.45a7.27,7.27,0,0,1,0-1.24c.11-.72.07-1.25-.73-1.61-.64-.29-.55-1.72.06-2.26a2.92,2.92,0,0,1,3.17-.66A3.43,3.43,0,0,1,131,62.91c.1,1.09.12,1.18,1,1.6l.3-2,1.77.14c.19.58-.27,1-1.23,1.23,1.69.76,1.69.76,2.42.22.73.73.56,1.42,0,2.14C134.36,67.19,133.56,68.2,132.61,69.4Zm-6-6c1.08.78,2.32.6,2.63-.25Z"/><path d="M134.61,63.61c0-1.29,0-2.48-1.38-3-.6-.22-.77,0-1.67,1.61-.54-1.44-1.24-2.69-2.75-3.09A3.82,3.82,0,0,0,125,60.44a3.05,3.05,0,0,1,.06-2.81c1.44-2.77,5.1-4.06,7.55-2.67a6.4,6.4,0,0,1,2.29,8.42C134.84,63.45,134.75,63.49,134.61,63.61Z"/><path d="M88.22,69.21l-.32-3.28c1.85.29,3.77.66,5.71.9,4.15.5,6.76-1,8.38-4.84a40.82,40.82,0,0,0,1.3-4.4,14.34,14.34,0,0,1-.47,6.5c-1.17,3.41-3.79,5-7.16,5.45A22.64,22.64,0,0,1,88.22,69.21Z"/><path d="M71.11,132.15a20.78,20.78,0,0,0-.4,8.27c0,.35.4.68.66,1,.55.65,1.2,1.22,1.68,1.91s.21,1.16-.58,1.19c-1.45.05-2.91,0-4.36,0-.21,0-.59-.52-.56-.75a10.37,10.37,0,0,1,.6-2.18c.32-.82.24-1.45-.61-1.8s-.88-.84-.57-1.58c.57-1.41,1.08-2.84,1.67-4.37,1.2.23,1.83-.71,2.48-1.62Z"/><path d="M68.92,69.89l-.42,3.26a27.05,27.05,0,0,0-2.74-1.4,3.87,3.87,0,0,0-3.06-.1c2,.31,3.94.59,5.63,2.4a46.42,46.42,0,0,1-5.78.45,4.45,4.45,0,0,1-2.41-1.36,1.49,1.49,0,0,1,.24-2.45A5.59,5.59,0,0,1,62,69.93,17.52,17.52,0,0,1,68.92,69.89Z"/><path d="M78.06,80.94a3.71,3.71,0,0,0,1.18.73,1.84,1.84,0,0,0,1.37-.28A2,2,0,0,0,81.22,80c0-.26-.64-.51-1-.76l-.88-.62a3.73,3.73,0,0,1,1-.49,1.63,1.63,0,0,1,1,.27,3.38,3.38,0,0,0,3.92.06,5,5,0,0,1-.18,1.38c-.48,1-.28,1.74.71,2.16s.45,1.17.47,1.78a2.5,2.5,0,0,1-1.1.28,2.25,2.25,0,0,1-.8-.25,6.88,6.88,0,0,0-5-.13,4.93,4.93,0,0,1-1.54,0c0-.51,0-1,0-1.53S78,81.36,78.06,80.94Z"/><path d="M127.09,67.52c.75.66.12,1-.19,1.46-1.43,1.9-2.94,3.74-4.28,5.7a18.25,18.25,0,0,0-3,6.91l-.3,0a11.16,11.16,0,0,1-.1-2.37,16.18,16.18,0,0,1,7.56-11.56A1.86,1.86,0,0,1,127.09,67.52Z"/><path d="M87.83,72.66l3.54.27c.12-.76-.88-1-4-.62l.34-2c1.81.29,3.55.52,5.27.88.87.17,1.11,1,1.16,1.77a1.91,1.91,0,0,1-1.31,2c-1.56.54-3.7-.28-5-1.92Z"/><path d="M38.56,117.61a17,17,0,0,1-1.89,2,2.13,2.13,0,0,1-3.56-1.51,11.77,11.77,0,0,1,.07-2.65,1,1,0,0,1,.69-.63,2.62,2.62,0,0,1,2.61,1A13.37,13.37,0,0,0,38.56,117.61Z"/><path d="M131.36,72.65c-.05.11-.06.25-.14.33a18.8,18.8,0,0,0-4.78,9.27l-.18.64s-.07.1-.13.2l-2.46-1.52a13.31,13.31,0,0,1,2.88-4.49c1.55-1.53,3.21-2.94,4.83-4.41Z"/><path d="M152.93,96a1.65,1.65,0,0,1-1.48-1.71c0-1.11-.69-1.44-2.31-1.11l1.66.71L151,95c-1.27-.72-2.39-1.27-3.4-2a1.39,1.39,0,0,1,.12-1.29,2.79,2.79,0,0,1,1.94-.57A3.83,3.83,0,0,1,152.47,94C152.6,94.62,152.76,95.26,152.93,96Z"/><path d="M124.35,76.92l1.58-.25-2.9,4.5a13.84,13.84,0,0,1,1-5.59,33,33,0,0,1,1.82-3.85,5.17,5.17,0,0,1,1.25-1.1l.4.28a5.41,5.41,0,0,1-.51,1.31A11.11,11.11,0,0,1,125.27,74C124.36,74.81,124.47,75.8,124.35,76.92Z"/><path d="M120.36,81.62c0-1.76,1.54-5.06,3.44-7.7l-1.73,7.53Z"/><path d="M122.8,70.17a6.9,6.9,0,0,1,2.48-5.68c.93.29.08,2.18,1.81,1.74-.4,1.18-1.45,1.24-2,1.88l-.34-.14.59-3c-.3.29-.59.43-.67.66-.2.52-.53,1.15-.38,1.61C124.77,68.77,123.64,69.33,122.8,70.17Z"/><path d="M136.44,64.2a1.81,1.81,0,0,1-.06,2,17.72,17.72,0,0,1-1.85,2.28c-1.18,1.19-2.42,2.32-3.53,3.37L130,71C133.58,69.55,136.56,66.49,136.44,64.2Z"/><path d="M79.42,84.37a5.79,5.79,0,0,1,5,.15A4.22,4.22,0,0,1,79.42,84.37Z"/><path d="M127.17,75.51c.45-1,.83-2,1.37-2.9.22-.36.8-.54,1.24-.73.11,0,.46.19.48.33a1.17,1.17,0,0,1-.13.84c-.9.9-1.84,1.74-2.77,2.61Z"/><path d="M125,76.31c.12-2.15,2-2.8,2.79-4.22l.25.13c-.54,1.18-1,2.38-1.65,3.5C126.21,76,125.58,76.07,125,76.31Z"/><path d="M138,143.57h5.26a3.52,3.52,0,0,1-2.83,1A2.27,2.27,0,0,1,138,143.57Z"/><path d="M131.64,68.61l.36,1-2.78,1c-.23-.71-.24-1.12.57-1.28A11.37,11.37,0,0,0,131.64,68.61Z"/><path d="M120.8,72.62c.43-1.4.81-2.68,1.2-4C122.18,70.1,122.32,71.53,120.8,72.62Z"/><path d="M128.27,68.57l.28,1.7-1.75-.15L128,68.51Z"/><path d="M131.38,72.67c.92-1.06,1.85-2.11,2.78-3.17l.33.33-3.13,2.82Z"/><path d="M73.16,69.49l1.28,1.17-.1.28c-.39.08-1.09.29-1.12.2a7.6,7.6,0,0,1-.37-1.53Z"/></svg>