<svg xmlns="http://www.w3.org/2000/svg" viewBox="0 0 226.93 246.29"><defs><style>.cls-1{fill:none;}.cls-2{fill:#3498db;}</style></defs><g id="Layer_2" data-name="Layer 2"><g id="Layer_1-2" data-name="Layer 1"><rect class="cls-1" width="226.93" height="246.29"/><path class="cls-2" d="M189.1,151.28v6.31a18.91,18.91,0,0,1-18.91,18.91H18.91A18.91,18.91,0,0,1,0,157.59V56.73A18.91,18.91,0,0,1,18.91,37.82h6.3v81.95a31.56,31.56,0,0,0,31.52,31.51Zm37.83-31.51V18.91A18.92,18.92,0,0,0,208,0H56.73A18.91,18.91,0,0,0,37.82,18.91V119.77a18.91,18.91,0,0,0,18.91,18.91H208A18.92,18.92,0,0,0,226.93,119.77ZM100.86,37.82A18.92,18.92,0,1,1,82,18.91,18.91,18.91,0,0,1,100.86,37.82ZM63,94.55,84.9,72.69a4.74,4.74,0,0,1,6.7,0l15.56,15.56,53.38-53.38a4.72,4.72,0,0,1,6.7,0l34.47,34.47v44.12H63V94.55Z"/><path class="cls-2" d="M36.65,220.38a12.28,12.28,0,0,1-5.22,5,19.41,19.41,0,0,1-9.2,1.92H14v18.41H6.57V200.35H22.23a19.84,19.84,0,0,1,8.84,1.79A12.48,12.48,0,0,1,36.49,207a13.27,13.27,0,0,1,1.79,6.85A13.62,13.62,0,0,1,36.65,220.38Zm-8.09-1.07a7,7,0,0,0,2.09-5.45q0-7.44-8.42-7.44H14v14.81h8.22Q26.48,221.23,28.56,219.31Z"/><path class="cls-2" d="M71.34,210.92a12.63,12.63,0,0,1,5.09,5.22,17.44,17.44,0,0,1,1.86,8.36v21.21H70.91v-20.1q0-4.83-2.41-7.41a8.59,8.59,0,0,0-6.59-2.58,8.7,8.7,0,0,0-6.63,2.58q-2.45,2.58-2.44,7.41v20.1H45.4v-48.3h7.44v16.51a12.54,12.54,0,0,1,4.79-3.52A16,16,0,0,1,64,209.16,15.15,15.15,0,0,1,71.34,210.92Z"/><path class="cls-2" d="M94.15,244a16.65,16.65,0,0,1-6.47-6.53,19.77,19.77,0,0,1-2.35-9.76A19.31,19.31,0,0,1,87.75,218a16.75,16.75,0,0,1,6.59-6.53,20.25,20.25,0,0,1,18.67,0A16.75,16.75,0,0,1,119.6,218a19.31,19.31,0,0,1,2.41,9.72,18.86,18.86,0,0,1-2.48,9.73,17.16,17.16,0,0,1-6.75,6.56,19.53,19.53,0,0,1-9.43,2.31A18.43,18.43,0,0,1,94.15,244Zm14.58-5.52a10.34,10.34,0,0,0,4.08-4.11,13.28,13.28,0,0,0,1.57-6.66,13.5,13.5,0,0,0-1.5-6.62,10.12,10.12,0,0,0-4-4.08,10.9,10.9,0,0,0-5.35-1.37A10.78,10.78,0,0,0,98.22,217a9.76,9.76,0,0,0-3.88,4.08,14,14,0,0,0-1.43,6.62c0,3.88,1,6.87,3,9a9.83,9.83,0,0,0,7.48,3.16A11,11,0,0,0,108.73,238.46Z"/><path class="cls-2" d="M138.07,215.82v19.9a3.8,3.8,0,0,0,.94,2.9,4.69,4.69,0,0,0,3.23.89h4.57v6.2h-5.87c-3.35,0-5.92-.79-7.7-2.35s-2.68-4.11-2.68-7.64v-19.9h-4.24v-6.07h4.24v-8.94h7.51v8.94h8.74v6.07Z"/><path class="cls-2" d="M160.06,244a16.63,16.63,0,0,1-6.46-6.53,19.66,19.66,0,0,1-2.35-9.76,19.31,19.31,0,0,1,2.41-9.72,16.75,16.75,0,0,1,6.59-6.53,20.25,20.25,0,0,1,18.67,0,16.75,16.75,0,0,1,6.59,6.53,19.31,19.31,0,0,1,2.42,9.72,19,19,0,0,1-2.48,9.73,17.25,17.25,0,0,1-6.76,6.56,19.51,19.51,0,0,1-9.43,2.31A18.46,18.46,0,0,1,160.06,244Zm14.58-5.52a10.34,10.34,0,0,0,4.08-4.11,13.18,13.18,0,0,0,1.57-6.66,13.5,13.5,0,0,0-1.5-6.62,10.1,10.1,0,0,0-4-4.08,11,11,0,0,0-5.35-1.37,10.73,10.73,0,0,0-5.32,1.37,9.78,9.78,0,0,0-3.89,4.08,14.08,14.08,0,0,0-1.43,6.62q0,5.82,3,9a9.81,9.81,0,0,0,7.47,3.16A11,11,0,0,0,174.64,238.46Z"/><path class="cls-2" d="M200.75,244.76a13.33,13.33,0,0,1-5.32-4.18,10.39,10.39,0,0,1-2.09-5.9H201a5.27,5.27,0,0,0,2.19,3.82,7.93,7.93,0,0,0,5,1.53,8.35,8.35,0,0,0,4.86-1.21,3.62,3.62,0,0,0,1.73-3.1,3.18,3.18,0,0,0-1.92-3,36.43,36.43,0,0,0-6.1-2.15,58.29,58.29,0,0,1-6.6-2.16,11.49,11.49,0,0,1-4.4-3.2,8.35,8.35,0,0,1-1.86-5.67,8.87,8.87,0,0,1,1.69-5.26,11.41,11.41,0,0,1,4.87-3.75,18.2,18.2,0,0,1,7.27-1.37q6.13,0,9.89,3.1a11.12,11.12,0,0,1,4,8.45h-7.44a5.31,5.31,0,0,0-1.95-3.85,7.34,7.34,0,0,0-4.77-1.44,7.71,7.71,0,0,0-4.5,1.11,3.45,3.45,0,0,0-1.57,2.94,3.19,3.19,0,0,0,1,2.42,7.4,7.4,0,0,0,2.54,1.53c1,.37,2.48.84,4.44,1.4a50.39,50.39,0,0,1,6.43,2.12,12.09,12.09,0,0,1,4.34,3.17,8.34,8.34,0,0,1,1.89,5.55,9.25,9.25,0,0,1-1.7,5.48,11.22,11.22,0,0,1-4.79,3.78,17.81,17.81,0,0,1-7.28,1.37A18.13,18.13,0,0,1,200.75,244.76Z"/></g></g></svg>