<svg xmlns="http://www.w3.org/2000/svg" viewBox="0 0 226.93 246.29"><defs><style>.cls-1{fill:none;}.cls-2{fill:#3498db;}</style></defs><g id="Layer_2" data-name="Layer 2"><g id="Layer_1-2" data-name="Layer 1"><rect class="cls-1" width="226.93" height="246.29"/><path class="cls-2" d="M132.45,22.83H18.83A18.83,18.83,0,0,0,0,41.66V155.28a18.83,18.83,0,0,0,18.83,18.83H132.45a18.83,18.83,0,0,0,18.83-18.83V41.66a18.83,18.83,0,0,0-18.83-18.83Zm74.62,14.85L163.89,67.47v62l43.18,29.74c8.35,5.75,19.86-.12,19.86-10.16V47.85C226.93,37.84,215.46,31.93,207.07,37.68Z"/><path class="cls-2" d="M45.69,200.35l-17,45.36H20L2.94,200.35h8l13.44,37.72,13.51-37.72Z"/><path class="cls-2" d="M52.28,203.61a4.77,4.77,0,0,1,3.39-8.16A4.51,4.51,0,0,1,59,196.83a4.88,4.88,0,0,1,0,6.78A4.5,4.5,0,0,1,55.67,205,4.6,4.6,0,0,1,52.28,203.61Zm7,6.14v36H51.89v-36Z"/><path class="cls-2" d="M68.89,218a16.41,16.41,0,0,1,14.78-8.81,16.88,16.88,0,0,1,7,1.53,14.34,14.34,0,0,1,5.45,4.08V197.41h7.51v48.3H96.07v-5.42A13.9,13.9,0,0,1,91,244.6a15.68,15.68,0,0,1-7.4,1.69A16.09,16.09,0,0,1,75,243.91a16.88,16.88,0,0,1-6.13-6.66,20.46,20.46,0,0,1-2.25-9.69A19.89,19.89,0,0,1,68.89,218Zm25.65,3.26a10.77,10.77,0,0,0-4-4.17,10.45,10.45,0,0,0-5.35-1.44,10.53,10.53,0,0,0-9.36,5.51,12.88,12.88,0,0,0-1.54,6.43,13.44,13.44,0,0,0,1.54,6.53,10.82,10.82,0,0,0,4,4.27,10.39,10.39,0,0,0,5.32,1.47,10.54,10.54,0,0,0,5.35-1.43,10.75,10.75,0,0,0,4-4.21,13.26,13.26,0,0,0,1.53-6.5A13,13,0,0,0,94.54,221.23Z"/><path class="cls-2" d="M146.06,230.5H118.59a10,10,0,0,0,3.19,6.92,10.12,10.12,0,0,0,7.05,2.61q6,0,8.49-5h8a16.14,16.14,0,0,1-5.9,8.13,17.34,17.34,0,0,1-10.61,3.16A18.38,18.38,0,0,1,119.6,244a16.55,16.55,0,0,1-6.4-6.53,20,20,0,0,1-2.31-9.76,20.37,20.37,0,0,1,2.25-9.75,15.86,15.86,0,0,1,6.33-6.5,18.83,18.83,0,0,1,9.36-2.28,18.3,18.3,0,0,1,9.07,2.22,15.68,15.68,0,0,1,6.2,6.23,18.8,18.8,0,0,1,2.22,9.24A23.8,23.8,0,0,1,146.06,230.5Zm-7.5-6a8.52,8.52,0,0,0-2.94-6.6,10.53,10.53,0,0,0-7.11-2.48,9.59,9.59,0,0,0-6.6,2.45,10.27,10.27,0,0,0-3.26,6.63Z"/><path class="cls-2" d="M160,244a16.65,16.65,0,0,1-6.47-6.53,19.77,19.77,0,0,1-2.34-9.76,19.31,19.31,0,0,1,2.41-9.72,16.75,16.75,0,0,1,6.59-6.53,20.25,20.25,0,0,1,18.67,0,16.75,16.75,0,0,1,6.59,6.53,19.31,19.31,0,0,1,2.41,9.72,18.86,18.86,0,0,1-2.48,9.73,17.16,17.16,0,0,1-6.75,6.56,19.53,19.53,0,0,1-9.43,2.31A18.43,18.43,0,0,1,160,244Zm14.58-5.52a10.34,10.34,0,0,0,4.08-4.11,13.28,13.28,0,0,0,1.57-6.66,13.5,13.5,0,0,0-1.5-6.62,10.12,10.12,0,0,0-4-4.08,10.9,10.9,0,0,0-5.35-1.37A10.78,10.78,0,0,0,164.1,217a9.76,9.76,0,0,0-3.88,4.08,14,14,0,0,0-1.43,6.62c0,3.88,1,6.87,3,9a9.79,9.79,0,0,0,7.47,3.16A11,11,0,0,0,174.61,238.46Z"/><path class="cls-2" d="M200.72,244.76a13.26,13.26,0,0,1-5.32-4.18,10.32,10.32,0,0,1-2.09-5.9H201a5.27,5.27,0,0,0,2.19,3.82,7.93,7.93,0,0,0,5,1.53,8.35,8.35,0,0,0,4.86-1.21,3.65,3.65,0,0,0,1.73-3.1,3.17,3.17,0,0,0-1.93-3,35.77,35.77,0,0,0-6.1-2.15,58,58,0,0,1-6.59-2.16,11.41,11.41,0,0,1-4.4-3.2,8.35,8.35,0,0,1-1.86-5.67,8.87,8.87,0,0,1,1.69-5.26,11.31,11.31,0,0,1,4.86-3.75,18.25,18.25,0,0,1,7.28-1.37q6.14,0,9.89,3.1a11.12,11.12,0,0,1,4,8.45h-7.44a5.28,5.28,0,0,0-2-3.85,7.29,7.29,0,0,0-4.76-1.44,7.71,7.71,0,0,0-4.5,1.11,3.43,3.43,0,0,0-1.57,2.94,3.21,3.21,0,0,0,1,2.42,7.54,7.54,0,0,0,2.55,1.53c1,.37,2.48.84,4.44,1.4a50.39,50.39,0,0,1,6.43,2.12,12.09,12.09,0,0,1,4.34,3.17,8.45,8.45,0,0,1,1.89,5.55,9.32,9.32,0,0,1-1.7,5.48,11.22,11.22,0,0,1-4.79,3.78,17.81,17.81,0,0,1-7.28,1.37A18.13,18.13,0,0,1,200.72,244.76Z"/></g></g></svg>