<svg xmlns="http://www.w3.org/2000/svg" viewBox="0 0 104.92 308.39"><defs><style>.cls-1{fill:#3f1d06;}.cls-2{fill:#663514;}</style></defs><g id="Layer_2" data-name="Layer 2"><g id="Layer_1-2" data-name="Layer 1"><path class="cls-1" d="M93.32,128C90,88.74,31.06,60.89,16.18,58c0-4.6,5.1-4.65,9.15-6.33a1.41,1.41,0,0,0,.48-.22,7.7,7.7,0,0,0,1.65-.95l.05,0,.66-.51a13.29,13.29,0,0,0,1.93-1.63,40.73,40.73,0,0,0,5.83-7,44.63,44.63,0,0,0,2.39-5.16c1-1.93,2.55-14.65,3.25-16.94.12-.62,0,9.1.14,8.47-.13,1.55-.23,3.15-.35,4.8a53.69,53.69,0,0,1-1,7.6,20,20,0,0,1-1.7,5C35.93,50.37,33,52.8,31.85,54.5a1.86,1.86,0,0,0-.48,1.78,2.66,2.66,0,0,0,1.13,1.43c3.65,2.87,3.65.35,7.6-1.82a4.21,4.21,0,0,0,.7-.22,26.48,26.48,0,0,0,7.82-4.6l0,0L50.4,49.7A13,13,0,0,0,52.32,48a21.4,21.4,0,0,0,2.28-2.52c.71-1,1.52-2.1,2.3-3.3l.2-.4a61.23,61.23,0,0,0-2.36,6.84,6.17,6.17,0,0,0-.21.82A35.11,35.11,0,0,0,53.14,59c.34,5.73,5,5.21,6.3,4.95l.34-.09h0a17.55,17.55,0,0,0,1.47-1.17,32.19,32.19,0,0,0,3.6-3.55c.65-.82,1.48-1.62,2.15-2.62s1.33-2.13,2-3.25a13.1,13.1,0,0,0,1.61-3.86,25.06,25.06,0,0,0,.7-4.23,19.59,19.59,0,0,0-1.12-8.39,8.28,8.28,0,0,0-2.31-3.37,5.27,5.27,0,0,0-3.54-1.31,4.36,4.36,0,0,0-2.78,1.4,10.78,10.78,0,0,0-1.38,1.77,11.41,11.41,0,0,0-.77,1.43,16.82,16.82,0,0,0,.92-3.21,18.25,18.25,0,0,0,.42-5.11,15.84,15.84,0,0,0-1.08-5,13.42,13.42,0,0,0-2.63-4.27,10.48,10.48,0,0,0-7.91-3.67,6.67,6.67,0,0,0-3.4,1,6.36,6.36,0,0,0-2.67,3.87l0,0a.38.38,0,0,1,0,.1v0h0l-.83,3.15c0-.44.12-.88.12-1.33a33.34,33.34,0,0,0-.68-7.63c-1.14-5-3.78-10-8.1-12.61a13.13,13.13,0,0,0-6.8-2,12.82,12.82,0,0,0-6.15,1.27,15.5,15.5,0,0,0-4.11,3.25,22.12,22.12,0,0,0-2.38,3.18A18.28,18.28,0,0,0,12.89,10l-.42.79,0,0,0,0a53.36,53.36,0,0,0-3.57,7.91s0,.08,0,.13c-.3.87-.65,1.82-1,2.73-1.69,5.09-2.12,8.52-2,11.34v0c.17,3.86,1.39,6.69,2,11,.55,3.82,1.82,9.63,2.93,14.48a9.68,9.68,0,0,0-4.23,3.24C4.74,64.1,3.48,67.62,2.66,72,2,75.61.18,105.19,0,109.89A14.79,14.79,0,0,0,.44,114c4.22,18.25,38.1,41.14,40.75,55.91,2.91,15.94-13.73,30.41-21,42.75a119.07,119.07,0,0,0-8,17.85,141.08,141.08,0,0,0-6.82,25.07c-1.13,6.6-1.43,12.64-.35,17.16,3.35,14,12.25,38.53,38.06,35.36a42.29,42.29,0,0,0,6.82-1.35C81,298.08,81,228.57,78.12,212.67S97,169.92,93.32,128Z"/><path class="cls-1" d="M69.82,69.66c-.35,8.25,6,9.29,10.6,6.6a.77.77,0,0,1,.26-.17,7.64,7.64,0,0,0,2.17-1.74v0l1-1a4.69,4.69,0,0,0,1-1.3,5.07,5.07,0,0,0,.91-2,8.33,8.33,0,0,0,.29-2.65,14.09,14.09,0,0,0-.45-2.89,37.75,37.75,0,0,0-2.2-5.73,39.14,39.14,0,0,0-2.91-5.38c-.53-.84.28-1.64-.45-2.29s-3.26-1.42-4.26-1C68.45,53,69.82,69.66,69.82,69.66Z"/><path class="cls-1" d="M103,92.68a22.61,22.61,0,0,0-.55-4,40,40,0,0,0-1-3.94A28.4,28.4,0,0,0,98,77.49a10.39,10.39,0,0,0-2.74-2.75,5.58,5.58,0,0,0-3.48-1A5.12,5.12,0,0,0,89,74.88c-.66.56-5,3.1-5,10.85,0,1.79,1.53,6.18,1.58,6.37,1.44,5.53,10.71,12.92,12,12.49h0l0,0,.43-.17a3.81,3.81,0,0,0,1.21-.6,6.66,6.66,0,0,0,1.55-1.58,7.92,7.92,0,0,0,1.33-2.52,19.67,19.67,0,0,0,.81-3.28A23,23,0,0,0,103,92.68Z"/><path class="cls-2" d="M8.63,32.86v0c.17,3.86,1.39,6.69,2,11,.69,4.91,2.61,13.12,3.82,18.33a43.5,43.5,0,0,0,4.65-1.52c0-.48-.09-1-.17-1.6-.92-5.87,4.73-5.7,9.12-7.52a1.51,1.51,0,0,0,.48-.22,7.7,7.7,0,0,0,1.65-.95,29.77,29.77,0,0,0,5.12-5.39c2.22-2.87,8-24.14,7.78-26.14-.74-9-4.3-16.87-12.55-18-6.82-1-11.69,3.3-15.34,9.86a52.34,52.34,0,0,0-3.56,7.91s0,.08,0,.13c-.31.87-.66,1.82-1,2.73C8.94,26.61,8.5,30,8.63,32.86Z"/><path class="cls-2" d="M43.91,169.92c2.91,15.94-13.73,30.41-21,42.75a119.17,119.17,0,0,0-8,17.85,141.08,141.08,0,0,0-6.82,25.07c-1.13,6.6-1.44,12.64-.35,17.16,3.34,14,12.25,38.53,38.05,35.36a42.08,42.08,0,0,0,6.82-1.35c31.15-8.68,31.15-78.19,28.24-94.09S99.69,169.92,96,128,25.1,57,16.41,57.71a9.52,9.52,0,0,0-7.08,4c-1.87,2.43-3.13,6-4,10.33-.69,3.61-2.47,33.19-2.65,37.89A15.19,15.19,0,0,0,3.16,114C7.37,132.26,41.26,155.15,43.91,169.92Z"/><path class="cls-2" d="M43.91,169.92c2.91,15.94-13.73,30.41-21,42.75a119.17,119.17,0,0,0-8,17.85,141.08,141.08,0,0,0-6.82,25.07c-1.13,6.6-1.44,12.64-.35,17.16,3.34,14,12.25,38.53,38.05,35.36-44.48-10.47-31-48.58,1.1-66.94,14.06-8,35.28-47.45,31.63-89.41C75.29,114.09-3.78,130,9.33,61.67c-1.87,2.43-3.13,6-4,10.33-.69,3.61-2.47,33.19-2.65,37.89A15.19,15.19,0,0,0,3.16,114C7.37,132.26,41.26,155.15,43.91,169.92Z"/><path class="cls-1" d="M45.77,20.44l-.91,3.47A25.69,25.69,0,0,0,45.77,20.44Z"/><path class="cls-2" d="M24.57,45.81c6.82,1,10-3,13.68-9.51.48-.86,5-15.37,4.83-17.37-.74-9-4.3-16.87-12.55-18-6.82-1-11.69,3.3-15.34,9.86a52.34,52.34,0,0,0-3.56,7.91s0,.08,0,.13c-.18.91-.31,1.87-.4,2.78C10.11,32.78,14.45,44.38,24.57,45.81Z"/><path class="cls-2" d="M34.09,56.28a2.57,2.57,0,0,0,1.13,1.43c3.65,2.87,3.65.35,7.6-1.82a4.31,4.31,0,0,0,.69-.22,26.35,26.35,0,0,0,7.82-4.6c.66-.57,1.35-1.18,2.05-1.87,2.78-2.7,3.91-6.76,5.91-12,5.78-15.21-4.13-24-10.65-20.4a6.46,6.46,0,0,0-2.82,3.52s0,.09,0,.13l-.91,3.47c-.43,2.57-.56,5.52-.78,8.56a53.69,53.69,0,0,1-1,7.6,19.59,19.59,0,0,1-1.69,5c-2.74,5.34-5.65,7.77-6.82,9.47A1.84,1.84,0,0,0,34.09,56.28Z"/><path class="cls-1" d="M57.24,49.41a9.29,9.29,0,0,0,1.26-.3,8.08,8.08,0,0,0,1.39-.56,9.07,9.07,0,0,0,4.17-4.91c1.26-2.91,1.87-6.69,2.35-10.78-1.52.35-3,1.91-4.35,4.13A22.1,22.1,0,0,0,61,39a55.13,55.13,0,0,0-3.52,9.6A6.23,6.23,0,0,0,57.24,49.41Z"/><path class="cls-2" d="M44.08,32.47a53.69,53.69,0,0,1-1,7.6c2.26,5,6.3,8.21,10.3,9.13,2.78-2.7,4-7,6-12.27,5.78-15.21-4.23-23.75-10.75-20.14a6.46,6.46,0,0,0-2.82,3.52s0,.09,0,.13l-.91,3.47C44.43,26.48,44.3,29.43,44.08,32.47Z"/><path class="cls-2" d="M55.85,59c.35,5.73,5,5.21,6.3,4.95l.35-.09s.91-.82,2.21-2.21a37.84,37.84,0,0,0,6.74-9.74,18.48,18.48,0,0,0,1-3.3c1.48-6.6.17-15.29-5-15.9a2.2,2.2,0,0,0-1,.13c-1.52.35-3,1.91-4.35,4.13A22.1,22.1,0,0,0,61,39a55.13,55.13,0,0,0-3.52,9.6,6.23,6.23,0,0,0-.22.82A35.11,35.11,0,0,0,55.85,59Z"/><path class="cls-2" d="M58.28,53.06c.35,5.74,5,5.17,6.3,4.91a1.3,1.3,0,0,0,.35,0s.91-.87,2.22-2.26a40.86,40.86,0,0,0,5.34-7c1.48-6.6.17-15.29-5-15.9a2.2,2.2,0,0,0-1,.13c-1.52.35-3,1.91-4.35,4.13A22.1,22.1,0,0,0,61,39c-.39,1.17-.78,2.39-1.09,3.6a57.46,57.46,0,0,0-1.39,6.52A28.3,28.3,0,0,0,58.28,53.06Z"/><path class="cls-2" d="M72.53,69.66c-.34,8.25,6,9.29,10.6,6.6a.88.88,0,0,1,.26-.17,7.68,7.68,0,0,0,2.18-1.74,8.9,8.9,0,0,0,1.91-2.91c1.61-3.69-.13-7.69-3-13.73-2.48-5.21-4.43-7.86-6.56-6.86h0a8.26,8.26,0,0,0-2.78,3.3,7.44,7.44,0,0,0-.39.65,22.34,22.34,0,0,0-2.13,6.6A26.61,26.61,0,0,0,72.53,69.66Z"/><path class="cls-2" d="M74.16,66.42c-.34,8.25,6,9.3,10.6,6.6a1.15,1.15,0,0,1,.26-.17,4.87,4.87,0,0,0,.83-.57c1.61-3.69-.13-7.68-3-13.72-2.47-5.22-4.79-7.68-6.32-6.1s-2,3.62-2.32,5.71A26.56,26.56,0,0,0,74.16,66.42Z"/><path class="cls-2" d="M87.74,92.81c.13.31,3.73,8,8.73,11.25a4.12,4.12,0,0,0,3.78.53h0c1.7-.57,3.17-2.31,4-5,1-3.12,1-7.51-.61-12.94-3.69-12.6-9-15-13.56-9.82-.3.35-.6.74-.91,1.13,0,.09-.13.17-.17.26a13.59,13.59,0,0,0-2.3,7.47A18.6,18.6,0,0,0,87.74,92.81Z"/><path class="cls-2" d="M87.74,90.77c.13.31,3.73,8,8.73,11.25a4.09,4.09,0,0,0,3.78.52h0a3.92,3.92,0,0,0,1.48-.87c1-3.12,1-7.51-.61-12.94-3.69-12.6-9-14.94-13.55-9.82a14.62,14.62,0,0,0-.91,4.78A18.6,18.6,0,0,0,87.74,90.77Z"/><path class="cls-1" d="M34.57,54.5a1.84,1.84,0,0,0-.48,1.78C34.26,55.71,34.44,55.11,34.57,54.5Z"/><path class="cls-2" d="M14.89,230.52a141.08,141.08,0,0,0-6.82,25.07,244.56,244.56,0,0,1,30-42.36c23.72-26.84,27.29-34,28.37-57.86s-39.1-31.5-53.87-34.54C8.76,120,5.63,117.44,3.16,114c4.21,18.25,38.1,41.14,40.75,55.91,2.91,15.94-13.73,30.41-21,42.75A119.17,119.17,0,0,0,14.89,230.52Z"/></g></g></svg>