<svg xmlns="http://www.w3.org/2000/svg" viewBox="0 0 105.19 310.38"><defs><style>.cls-1{fill:#3f1d06;}.cls-2{fill:#663514;}</style></defs><g id="Layer_2" data-name="Layer 2"><g id="Layer_1-2" data-name="Layer 1"><path class="cls-1" d="M18.07,92.81a18.72,18.72,0,0,0,1.05-7.08,13.69,13.69,0,0,0-2.31-7.47c0-.09-.13-.17-.17-.26l0,0,0,0a10.82,10.82,0,0,0-1-1.56,9.89,9.89,0,0,0-1.52-1.56,5.12,5.12,0,0,0-2.76-1.13,5.59,5.59,0,0,0-3.48,1,10.35,10.35,0,0,0-2.73,2.75,27.76,27.76,0,0,0-3.49,7.3,37.4,37.4,0,0,0-1,3.94,23.57,23.57,0,0,0-.54,4,22,22,0,0,0,.11,3.74A19.69,19.69,0,0,0,1,99.7a8.13,8.13,0,0,0,1.34,2.52,6.66,6.66,0,0,0,1.55,1.58,3.81,3.81,0,0,0,1.21.6l.43.17s0,0,0,0h0a4.12,4.12,0,0,0,3.78-.53C14.34,100.85,17.94,93.12,18.07,92.81Z"/><path class="cls-1" d="M18.2,72.06a4.7,4.7,0,0,0,1,1.3c.64.61,1,1,1,1h0a7.86,7.86,0,0,0,2.18,1.74.88.88,0,0,1,.26.17c4.56,2.69,10.94,1.65,10.6-6.6a26.61,26.61,0,0,0-.05-8.26,22.6,22.6,0,0,0-2.12-6.6c-.14-.22-.27-.48-.4-.65h0a12.87,12.87,0,0,0-.55-1.32,10.74,10.74,0,0,0-.89-1.43,3.26,3.26,0,0,0-2-1.35,3.49,3.49,0,0,0-2.79,1.05,11,11,0,0,0-1.92,2.26,40.25,40.25,0,0,0-2.91,5.38,39.21,39.21,0,0,0-2.19,5.73A14.09,14.09,0,0,0,17,67.36,8.33,8.33,0,0,0,17.3,70,5.2,5.2,0,0,0,18.2,72.06Z"/><path class="cls-1" d="M102.65,114a15.19,15.19,0,0,0,.44-4.12c-.18-4.7-2-34.28-2.65-37.89-.83-4.38-2.09-7.9-4-10.34a9.71,9.71,0,0,0-4.24-3.24c1.12-4.85,2.39-10.66,2.93-14.48.61-4.34,1.83-7.17,2-11v0c.13-2.82-.3-6.25-2-11.34-.3-.91-.65-1.86-1-2.73,0-.05,0-.09,0-.13a52.34,52.34,0,0,0-3.56-7.91l0,0,0,0s-.14-.28-.41-.79A21.55,21.55,0,0,0,89,7.74a22.12,22.12,0,0,0-2.38-3.18,15.5,15.5,0,0,0-4.11-3.25A12.86,12.86,0,0,0,76.32,0a13.09,13.09,0,0,0-6.79,2c-4.33,2.66-7,7.64-8.11,12.61a33.33,33.33,0,0,0-.67,7.63c0,.45.09.89.12,1.33L60,20.44h0v0s0-.07,0-.1v0a7,7,0,0,0-.8-1.94,6.5,6.5,0,0,0-1.87-1.93,6.68,6.68,0,0,0-3.41-1A10.46,10.46,0,0,0,46,19.09a13.42,13.42,0,0,0-2.63,4.27,15.84,15.84,0,0,0-1.08,5,18.25,18.25,0,0,0,.41,5.11,16.81,16.81,0,0,0,.93,3.21,12,12,0,0,0-.78-1.43,10.65,10.65,0,0,0-1.37-1.77,4.36,4.36,0,0,0-2.79-1.4,5.26,5.26,0,0,0-3.53,1.31,8.28,8.28,0,0,0-2.31,3.37,19.43,19.43,0,0,0-1.12,8.39,26.09,26.09,0,0,0,.69,4.23A13.37,13.37,0,0,0,34,53.28c.71,1.12,1.39,2.21,2,3.25s1.5,1.8,2.16,2.62a32.24,32.24,0,0,0,3.59,3.55,15,15,0,0,0,1.48,1.17h0l.35.09c1.3.26,6,.78,6.3-5a35.1,35.1,0,0,0-1.39-9.6,5,5,0,0,0-.22-.82A61.19,61.19,0,0,0,46,41.75c.06.13.13.27.2.4.78,1.2,1.59,2.28,2.3,3.3A20.56,20.56,0,0,0,50.78,48a13.48,13.48,0,0,0,1.91,1.73l1.77,1.35,0,0a26.48,26.48,0,0,0,7.82,4.6,4.31,4.31,0,0,0,.69.22c3.95,2.17,3.95,4.69,7.6,1.82a2.57,2.57,0,0,0,1.13-1.43,1.85,1.85,0,0,0-.47-1.78c-1.18-1.7-4.09-4.13-6.82-9.47a19.21,19.21,0,0,1-1.7-5,55.18,55.18,0,0,1-1-7.6c-.12-1.65-.22-3.25-.35-4.8.12.63.23,1.28.35,1.9A38.45,38.45,0,0,0,64.18,36a47.79,47.79,0,0,0,3,5.32,40.75,40.75,0,0,0,5.82,7,13.85,13.85,0,0,0,1.93,1.63l.67.51,0,0a8,8,0,0,0,1.65.95,1.51,1.51,0,0,0,.48.22c4,1.68,7.09.25,7.13,4.85C70,59.41,10.43,86.82,7.06,126c-3.65,42,16.62,70.57,13.76,86.52s1.25,85.52,32.4,94.2A42.29,42.29,0,0,0,60,308.11c25.8,3.17,34.71-21.33,38.05-35.36,1.09-4.52.78-10.56-.35-17.16a140.24,140.24,0,0,0-6.82-25.07,119.17,119.17,0,0,0-8-17.85c-7.26-12.34-23.9-26.81-21-42.75C64.56,155.15,98.44,132.26,102.65,114Z"/><path class="cls-2" d="M99.27,34.85v0c-.17,3.87-1.39,6.69-2,11-.7,4.91-2.61,13.12-3.83,18.33a45.88,45.88,0,0,1-4.65-1.52c0-.48.09-1,.18-1.61.91-5.86-4.74-5.69-9.12-7.51a1.63,1.63,0,0,1-.48-.22,7.34,7.34,0,0,1-1.65-1,29.32,29.32,0,0,1-5.13-5.38,45.82,45.82,0,0,1-6.17-10.65c-.43-1.08-.82-2.17-1.17-3.3A25,25,0,0,1,64.43,30a.16.16,0,0,0,0-.13c-.17-.91-.3-1.87-.39-2.78A31.84,31.84,0,0,1,64,21c.73-9,5.16-16.9,13.42-18.07,6.82-1,11.68,3.3,15.33,9.86a53.7,53.7,0,0,1,3.57,7.9c0,.05,0,.09,0,.14.3.86.65,1.82,1,2.73C99,28.59,99.4,32,99.27,34.85Z"/><path class="cls-2" d="M64,171.91c-2.91,15.94,13.73,30.41,21,42.75a119.15,119.15,0,0,1,8,17.85,141.7,141.7,0,0,1,6.82,25.07c1.13,6.6,1.43,12.64.35,17.16-3.35,14-12.25,38.53-38.06,35.36a43.4,43.4,0,0,1-6.82-1.35c-31.15-8.69-31.15-78.19-28.24-94.09s-18.85-42.75-15.2-84.72S82.81,59,91.5,59.7a9.56,9.56,0,0,1,7.08,3.95c1.87,2.44,3.13,5.95,4,10.34.7,3.61,2.48,33.19,2.65,37.88a15.61,15.61,0,0,1-.43,4.13C100.53,134.25,66.65,157.14,64,171.91Z"/><path class="cls-2" d="M64,171.91c-2.91,15.94,13.73,30.41,21,42.75a119.15,119.15,0,0,1,8,17.85,141.7,141.7,0,0,1,6.82,25.07c1.13,6.6,1.43,12.64.35,17.16-3.35,14-12.25,38.53-38.06,35.36,44.49-10.47,23.71-60-8.36-78.35-14.06-8.05-20.31-35.15-16.66-77.11,3.21-37.67,74.57-22.62,61.47-91,1.87,2.44,3.13,5.95,4,10.34.7,3.61,2.48,33.19,2.65,37.88a15.61,15.61,0,0,1-.43,4.13C100.53,134.25,66.65,157.14,64,171.91Z"/><path class="cls-1" d="M62.13,22.43,63,25.9A29.05,29.05,0,0,1,62.13,22.43Z"/><path class="cls-2" d="M83.69,48c-6.82,1-11.68-3.3-15.33-9.86-.48-.87-1-1.79-1.39-2.74-.78-1.61-1.48-3.35-2.17-5.17a.15.15,0,0,0,0-.13c-.17-.91-.3-1.87-.39-2.78a31.84,31.84,0,0,1,0-6.17c.74-9,5.17-16.9,13.42-18.07,6.82-1,11.69,3.3,15.34,9.86a53.35,53.35,0,0,1,3.56,7.91s0,.08,0,.13a26.18,26.18,0,0,1,.39,2.78C98.16,34.94,93.81,46.54,83.69,48Z"/><path class="cls-2" d="M73.82,58.27a2.66,2.66,0,0,1-1.13,1.43c-3.65,2.87-3.65.35-7.61-1.83a3.58,3.58,0,0,1-.69-.21,26.35,26.35,0,0,1-7.82-4.61c-.65-.56-1.35-1.17-2-1.87A32,32,0,0,1,47,39.41c-5.78-15.2,5.78-24.24,12.29-20.63,1.31.74,5,20.85,5.56,23.28A19.52,19.52,0,0,0,66.52,47c2.74,5.35,5.65,7.78,6.82,9.47A1.88,1.88,0,0,1,73.82,58.27Z"/><path class="cls-2" d="M64.82,42.06c-2.25,4.95-6.3,8.21-10.29,9.12A32,32,0,0,1,47,39.41c-5.78-15.2,5.78-24.24,12.29-20.63C60.57,19.52,64.26,39.63,64.82,42.06Z"/><path class="cls-2" d="M51.69,61.15c-.35,5.73-5,5.21-6.3,4.95A2.14,2.14,0,0,1,45,66s-.91-.82-2.22-2.21a38,38,0,0,1-6.73-9.73,18.74,18.74,0,0,1-1-3.3c-1.48-6.61-.18-15.3,5-15.9a2.1,2.1,0,0,1,1,.13c1.52.34,3,1.91,4.34,4.12.39.61.74,1.31,1.09,2a55.74,55.74,0,0,1,3.52,9.6,6.36,6.36,0,0,1,.22.83A35.45,35.45,0,0,1,51.69,61.15Z"/><path class="cls-2" d="M49.25,55.2c-.34,5.73-5,5.17-6.3,4.91a1,1,0,0,1-.34,0s-.92-.87-2.22-2.26a41.14,41.14,0,0,1-5.34-7c-1.48-6.61-.18-15.3,5-15.9a2.1,2.1,0,0,1,1,.13c1.52.34,3,1.91,4.34,4.12.39.61.74,1.31,1.09,2,.39,1.18.78,2.39,1.09,3.61A56.86,56.86,0,0,1,49,51.24,26.72,26.72,0,0,1,49.25,55.2Z"/><path class="cls-2" d="M35.37,71.65c.35,8.25-6,9.29-10.6,6.6a.77.77,0,0,0-.26-.17,7.81,7.81,0,0,1-2.17-1.74,8.9,8.9,0,0,1-1.91-2.91c-1.61-3.7.13-7.69,3-13.73,2.48-5.21,4.44-7.86,6.56-6.86H30a8.19,8.19,0,0,1,2.78,3.3,7.44,7.44,0,0,1,.39.65,22.45,22.45,0,0,1,2.13,6.6A26.43,26.43,0,0,1,35.37,71.65Z"/><path class="cls-2" d="M32.11,67.56c.35,8.26-6,9.3-10.6,6.61a.72.72,0,0,0-.26-.18,5.92,5.92,0,0,1-.82-.56c-1.61-3.7.13-7.69,3-13.73,2.48-5.21,4.44-7.86,6.56-6.86H30a22.93,22.93,0,0,1,2,6.47A26.35,26.35,0,0,1,32.11,67.56Z"/><path class="cls-2" d="M20.17,94.8c-.13.3-3.74,8-8.74,11.25a4.09,4.09,0,0,1-3.78.52h0c-1.69-.56-3.17-2.3-3.95-4.95-1-3.13-1-7.51.61-12.94,3.69-12.6,9-15,13.55-9.82.3.34.61.74.91,1.13.05.08.13.17.18.26a13.59,13.59,0,0,1,2.3,7.47A19.06,19.06,0,0,1,20.17,94.8Z"/><path class="cls-2" d="M17.69,90.72C17.56,91,14,98.75,9,102a4.15,4.15,0,0,1-3.78.52h0a4,4,0,0,1-1.48-.87c-1-3.13-1-7.51.61-12.94,3.69-12.6,9-15,13.55-9.82a14.57,14.57,0,0,1,.91,4.78A18.65,18.65,0,0,1,17.69,90.72Z"/><path class="cls-2" d="M93,232.51a141.7,141.7,0,0,1,6.82,25.07,243.79,243.79,0,0,0-30-42.36c-23.72-26.85-27.28-34-28.37-57.86s39.1-31.5,53.87-34.54c3.82-.83,7-3.39,9.43-6.82-4.22,18.25-38.1,41.14-40.75,55.91-2.91,15.94,13.73,30.41,21,42.75A119.15,119.15,0,0,1,93,232.51Z"/></g></g></svg>