<svg xmlns="http://www.w3.org/2000/svg" xmlns:xlink="http://www.w3.org/1999/xlink" viewBox="0 0 977.46 854.9"><defs><style>.cls-1{fill:none;}.cls-2{isolation:isolate;}.cls-3{clip-path:url(#clip-path);}.cls-22,.cls-4{fill:#fff;}.cls-5{fill:#ff0;}.cls-6{fill:aqua;}.cls-7{fill:lime;}.cls-8{fill:#f0f;}.cls-9{fill:red;}.cls-10{fill:blue;}.cls-11{opacity:0.5;}.cls-12{fill:#d4d4d4;}.cls-13{fill:#aaa;}.cls-14{fill:gray;}.cls-15{fill:#555;}.cls-16{fill:#2b2b2b;}.cls-17{mix-blend-mode:multiply;}.cls-18{fill:#663514;}.cls-19{fill:#3f1d06;}.cls-20{fill:#161616;}.cls-21{fill:#333;}.cls-22{font-size:80px;font-family:Lato-Black, Lato;font-weight:800;}</style><clipPath id="clip-path" transform="translate(179.46)"><circle class="cls-1" cx="318.5" cy="385.92" r="318.5"/></clipPath></defs><g class="cls-2"><g id="Layer_2" data-name="Layer 2"><g id="Layer_1-2" data-name="Layer 1"><g class="cls-3"><rect class="cls-4" y="47.42" width="139.64" height="676.94"/><rect class="cls-5" x="139.64" y="47.42" width="139.64" height="676.94"/><rect class="cls-6" x="279.27" y="47.42" width="139.64" height="676.94"/><rect class="cls-7" x="418.91" y="47.42" width="139.64" height="676.94"/><rect class="cls-8" x="558.55" y="47.42" width="139.64" height="676.94"/><rect class="cls-9" x="698.19" y="47.42" width="139.64" height="676.94"/><rect class="cls-10" x="837.82" y="47.42" width="139.64" height="676.94"/><rect class="cls-10" y="724.35" width="139.64" height="130.54"/><rect class="cls-8" x="279.27" y="724.35" width="139.64" height="130.54"/><rect class="cls-6" x="558.55" y="724.35" width="139.64" height="130.54"/><rect class="cls-4" x="837.82" y="724.35" width="139.64" height="130.54"/><rect x="139.64" y="724.35" width="139.64" height="130.54"/><rect x="418.91" y="724.35" width="139.64" height="130.54"/><rect x="698.19" y="724.35" width="139.64" height="130.54"/><rect class="cls-11" y="756.65" width="977.46" height="32.97"/><rect class="cls-4" y="789.62" width="139.64" height="65.27"/><rect class="cls-12" x="139.64" y="789.62" width="139.64" height="65.27"/><rect class="cls-13" x="279.27" y="789.62" width="139.64" height="65.27"/><rect class="cls-14" x="418.91" y="789.62" width="139.64" height="65.27"/><rect class="cls-15" x="558.55" y="789.62" width="139.64" height="65.27"/><rect class="cls-16" x="698.19" y="789.62" width="139.64" height="65.27"/><rect x="837.82" y="789.62" width="139.64" height="65.27"/><g class="cls-17"><rect class="cls-4" x="698.19" y="789.62" width="19.95" height="65.27"/><rect class="cls-12" x="718.14" y="789.62" width="19.95" height="65.27"/><rect class="cls-13" x="738.08" y="789.62" width="19.95" height="65.27"/><rect class="cls-14" x="758.03" y="789.62" width="19.95" height="65.27"/><rect class="cls-15" x="777.98" y="789.62" width="19.95" height="65.27"/><rect class="cls-16" x="797.93" y="789.62" width="19.95" height="65.27"/><rect x="817.88" y="789.62" width="19.95" height="65.27"/></g></g><path class="cls-18" d="M295,713.42s-2.55-151.71-16.66-183S159.4,431.68,146.3,396.4,118,261,123.11,249.24c7.06-16.13,26.21-30.24,26.21-30.24s0-21.17,10.08-28.23,25.2-14.11,34.27-10.07,18.15,14.11,18.15,14.11-6-17.14,7.05-23.19,30.75-8.56,43.34,1c9.36,7.11,21.17,35.28,21.17,35.28s6.05-7.06,22.18-7.06S338.82,219,338.82,219s-2-5,16.13-7.06,30.24-2,43.34,20.16,48.38,49.39,67.54,120,30.23,128,32.25,172.36-6.08,153-6.08,153-65.73,51.68-87,55C324.3,745,295,713.42,295,713.42Z" transform="translate(179.46)"/><path class="cls-19" d="M162.43,259.32c27,0,39.93-3,63.5-19.66C238,231.09,244.58,217,244.58,217c5-5,4.53,20.16-11.6,38.31-7.46,8.39-37.29,24.19-37.29,24.19,14.11,18.14,16.13,46.36,16.13,46.36l-33.27,42.34s-4-27.92-9.41-57.12C164.44,285.52,156.38,259.32,162.43,259.32Z" transform="translate(179.46)"/><path class="cls-19" d="M192.66,300.64c5,15.12,13.11,29.24,29.24,26.21,14-2.63,17.13-11.09,17.13-11.09s6.37,16.13,25.2,16.13c25.2,0,25.2-15.12,25.2-15.12s15.12,39.31,37.3,36.29,22.17-28.22,22.17-28.22a29.26,29.26,0,0,0,21.17,11.08c14.11,1,25.2-10.08,26.2-24.19,1.23-17.12,2-41.33-1-34.27s-12.1,23.18-25.2,22.18c-10.1-.78-24.19-3-24.19-3s-3,15.12-26.21,14.11c-22.52-1-29.23-26.2-29.23-26.2l-5-28.23s-6.21,13.67-22.18,16.13c-26.21,4-35.28-15.12-35.28-15.12L184.6,273.43Z" transform="translate(179.46)"/><path class="cls-19" d="M312.61,517.36c-7.93,1.29-12.95,3.51-21.16,2-6.69-1.24-13.55-5.16-20-5.87-.53,1.85.26,2.35.85,3.88l-1,1c4.13,15.06,28.15,14.45,40.32,12.09,8.59-1.66,15.8-7.34,24.19-8.85,7.1-1.27,19.16,2.44,21-6.34C346,511.51,324.23,515.47,312.61,517.36Z" transform="translate(179.46)"/><path class="cls-19" d="M486,444.78a170.41,170.41,0,0,0-3.84-17.35c-.72-2.74-1.57-5.14-2.26-7.82-.62-2.43,0-10.08-1-7.08v-3c-5,17.75,18.2,51.71-5.8,62.74-10,4.6-19.34,2.65-29.26,9.05-6.91,4.46-22.93,7.61-26.35,13.73,10.88,1.92,26.66-5.74,38.23-6.9,10.06-1,28.44,4.23,34.26-7.06C495.38,470.66,487.6,454.87,486,444.78Z" transform="translate(179.46)"/><path class="cls-19" d="M325.77,368.13c-9.9-2.43-21.33-5.21-31.28-7-7.26-1.33-14.16-.22-21.16,0,19,3.88,36.78,9.15,54.35,18.42,15,7.89,20.05,22.56,32.36,31.62C359.65,392.55,343.57,372.5,325.77,368.13Z" transform="translate(179.46)"/><path class="cls-19" d="M261.21,360.11a42.93,42.93,0,0,0,12.12,1h0Z" transform="translate(179.46)"/><path class="cls-19" d="M149.19,219.12l1.14.38c-.06-.13-.11-.27-.16-.41A4.87,4.87,0,0,1,149.19,219.12Z" transform="translate(179.46)"/><path class="cls-19" d="M149.19,219.12l-.37-.12A.5.5,0,0,0,149.19,219.12Z" transform="translate(179.46)"/><path class="cls-19" d="M237.44,210.85c-.64-4.69-6.44-10.41-8.49-15-1.84-4.17-6.81-20.81-10.08-24.2,0,0-9.9,4.41-11.59,10.08a17.64,17.64,0,0,0-.38,5.78c-9.2-9.47-22-16.26-34.39-11.82-7.54,2.69-18.93,7.66-22.68,15.11-2.77,5.51-2.05,22.09.34,28.32,3.2-.35,11.09-2.48,13.77-2.61,5.87-.29,11.68-.58,17.64-1.12,6.84-.63,13.08-2.85,20.16-2.91,3.69,0,9.43.07,13.78-1C223,212,234.25,212.26,237.44,210.85Z" transform="translate(179.46)"/><path class="cls-19" d="M287.92,284c-2.68-3.46-1.55-15.32-2-20.16-.65-6.51-1.29-12.4-1.61-19.15-.37-7.83-6.69-33,1.13-37.86,4.48,5.49,1.86,19.72,2.54,26.65,1.17,12,5,23.81,8.9,35.26,2.57,7.51,4.44,15.27,7.18,22.71,2.31,6.25,5.61,12.63,6.17,19.4,1.33,15.88-21.65-2.83-18.25-12.23Z" transform="translate(179.46)"/><path class="cls-19" d="M338.32,218.49c-3.69,4.58,3.25,14.87,4,20.15,1.23,8.23,2.62,16.73,3,25.09.34,7.27-3.54,48.44,11.51,44.89,2.88-6.59-4-18.37-5.46-25.11-1.95-8.94-3.25-18.26-4.53-27.23-1.66-11.61-.92-27.87-9.08-36.78Z" transform="translate(179.46)"/><path class="cls-20" d="M309.76,323.36c4.13,26.19,20.74,46.33-8.17,50.9s-81.28-1.85-85.41-28S263,356,291.92,351.48,305.63,297.17,309.76,323.36Z" transform="translate(179.46)"/><path class="cls-21" d="M308.83,317.43c4.13,26.19,9.62,40-19.3,44.55s-81.28-1.84-85.41-28,6.08-49.55,35-54.11S304.7,291.25,308.83,317.43Z" transform="translate(179.46)"/><text class="cls-22" transform="translate(456.95 164) rotate(-5.81)">C</text><text class="cls-22" transform="translate(506.66 159.23) rotate(5.69)">L</text><text class="cls-22" transform="translate(545.96 163.57) rotate(13.89)">I</text><text class="cls-22" transform="matrix(0.92, 0.4, -0.4, 0.92, 569.09, 167.94)">C</text><text class="cls-22" transform="translate(614.82 187.15) rotate(37.06)">K</text><text class="cls-22" transform="translate(657.79 221.43) rotate(45.95)"> </text><text class="cls-22" transform="translate(668.2 230.45) rotate(53.64)">T</text><text class="cls-22" transform="translate(694.77 263.94) rotate(66.84)">O</text><text class="cls-22" transform="translate(717.26 321.28) rotate(76.65)"> </text><text class="cls-22" transform="matrix(0.09, 1, -1, 0.09, 721.77, 334.23)">P</text><text class="cls-22" transform="translate(725.94 382.48) rotate(96.11)">L</text><text class="cls-22" transform="translate(723.03 421.26) rotate(108.42)">A</text><text class="cls-22" transform="translate(708.58 467.39) rotate(120.41)">Y</text></g></g></g></svg>