<svg xmlns="http://www.w3.org/2000/svg" viewBox="0 0 637 667.96"><defs><style>.cls-1{fill:#b3b3b3;}.cls-2{fill:#663514;}.cls-3{fill:#3f1d06;}.cls-4{fill:#161616;}.cls-5{fill:#333;}</style></defs><g id="Layer_2" data-name="Layer 2"><g id="Layer_1-2" data-name="Layer 1"><circle class="cls-1" cx="318.5" cy="318.5" r="318.5"/><path class="cls-2" d="M295,646s-2.55-151.71-16.66-182.95S159.4,364.27,146.3,329,118,193.58,123.11,181.82c7.06-16.13,26.21-30.24,26.21-30.24s0-21.16,10.08-28.22,25.2-14.11,34.27-10.08,18.15,14.11,18.15,14.11-6-17.13,7.05-23.18,30.75-8.57,43.34,1c9.36,7.11,21.17,35.28,21.17,35.28s6.05-7.06,22.18-7.06,33.26,18.14,33.26,18.14-2-5,16.13-7.05,30.24-2,43.34,20.16,48.38,49.39,67.54,120,30.23,128,32.25,172.36S492,610,492,610s-65.73,51.68-87,55C324.3,677.58,295,646,295,646Z"/><path class="cls-3" d="M162.43,191.9c27,0,39.93-3,63.5-19.65,12.09-8.57,18.65-22.68,18.65-22.68,5-5,4.53,20.16-11.6,38.3-7.46,8.39-37.29,24.19-37.29,24.19,14.11,18.14,16.13,46.37,16.13,46.37l-33.27,42.33s-4-27.92-9.41-57.12C164.44,218.11,156.38,191.9,162.43,191.9Z"/><path class="cls-3" d="M192.66,233.23c5,15.12,13.11,29.23,29.24,26.21,14-2.63,17.13-11.09,17.13-11.09s6.37,16.13,25.2,16.13c25.2,0,25.2-15.12,25.2-15.12s15.12,39.31,37.3,36.28,22.17-28.22,22.17-28.22a29.29,29.29,0,0,0,21.17,11.09c14.11,1,25.2-10.08,26.2-24.19,1.23-17.13,2-41.33-1-34.27s-12.1,23.18-25.2,22.17c-10.1-.78-24.19-3-24.19-3s-3,15.12-26.21,14.11c-22.52-1-29.23-26.21-29.23-26.21l-5-28.22s-6.21,13.67-22.18,16.13c-26.21,4-35.28-15.12-35.28-15.12L184.6,206Z"/><path class="cls-3" d="M312.61,449.94c-7.93,1.29-12.95,3.51-21.16,2-6.69-1.24-13.55-5.16-20-5.87-.53,1.86.26,2.35.85,3.88l-1,1c4.13,15.06,28.15,14.45,40.32,12.1,8.59-1.67,15.8-7.34,24.19-8.85,7.1-1.28,19.16,2.44,21-6.35C346,444.09,324.23,448.05,312.61,449.94Z"/><path class="cls-3" d="M486,377.37A170.61,170.61,0,0,0,482.17,360c-.72-2.73-1.57-5.14-2.26-7.82-.62-2.42,0-10.08-1-7.08v-3c-5,17.75,18.2,51.72-5.8,62.74-10,4.61-19.34,2.65-29.26,9.05-6.91,4.47-22.93,7.62-26.35,13.74,10.88,1.91,26.66-5.75,38.23-6.91,10.06-1,28.44,4.24,34.26-7.06C495.38,403.25,487.6,387.45,486,377.37Z"/><path class="cls-3" d="M325.77,300.71c-9.9-2.43-21.33-5.21-31.28-7-7.26-1.32-14.16-.22-21.16,0,19,3.88,36.78,9.15,54.35,18.42,15,7.89,20.05,22.57,32.36,31.62C359.65,325.14,343.57,305.08,325.77,300.71Z"/><path class="cls-3" d="M261.21,292.7a42.92,42.92,0,0,0,12.12,1h0Z"/><path class="cls-3" d="M149.19,151.71l1.14.38c-.06-.13-.11-.28-.16-.42A5,5,0,0,1,149.19,151.71Z"/><path class="cls-3" d="M149.19,151.71l-.37-.13A.54.54,0,0,0,149.19,151.71Z"/><path class="cls-3" d="M237.44,143.43c-.64-4.69-6.44-10.4-8.49-15-1.84-4.16-6.81-20.8-10.08-24.19,0,0-9.9,4.41-11.59,10.08a17.62,17.62,0,0,0-.38,5.78c-9.2-9.48-22-16.27-34.39-11.83-7.54,2.7-18.93,7.66-22.68,15.12-2.77,5.5-2.05,22.09.34,28.31,3.2-.34,11.09-2.47,13.77-2.61,5.87-.29,11.68-.57,17.64-1.12,6.84-.62,13.08-2.84,20.16-2.91,3.69,0,9.43.08,13.78-1C223,144.56,234.25,144.85,237.44,143.43Z"/><path class="cls-3" d="M287.92,216.6c-2.68-3.47-1.55-15.33-2-20.16-.65-6.52-1.29-12.4-1.61-19.15-.37-7.84-6.69-33,1.13-37.87,4.48,5.5,1.86,19.72,2.54,26.65,1.17,12,5,23.82,8.9,35.27,2.57,7.5,4.44,15.26,7.18,22.7,2.31,6.26,5.61,12.63,6.17,19.4,1.33,15.88-21.65-2.83-18.25-12.23Z"/><path class="cls-3" d="M338.32,151.08c-3.69,4.58,3.25,14.87,4,20.15,1.23,8.22,2.62,16.72,3,25.08.34,7.28-3.54,48.45,11.51,44.89,2.88-6.59-4-18.36-5.46-25.11-1.95-8.94-3.25-18.25-4.53-27.23-1.66-11.6-.92-27.86-9.08-36.77Z"/><path class="cls-4" d="M309.76,256c4.13,26.18,20.74,46.33-8.17,50.89s-81.28-1.85-85.41-28,46.83,9.82,75.74,5.26S305.63,229.76,309.76,256Z"/><path class="cls-5" d="M308.83,250c4.13,26.18,9.62,40-19.3,44.55s-81.28-1.85-85.41-28,6.08-49.55,35-54.11S304.7,223.83,308.83,250Z"/></g></g></svg>