<svg xmlns="http://www.w3.org/2000/svg" viewBox="0 0 303.09 302.24"><defs><style>.cls-1{fill:#4991fc;}.cls-2{fill:#fcfdfd;}</style></defs><g id="Layer_2" data-name="Layer 2"><g id="OBJECTS"><path class="cls-1" d="M151.31,302c-20,0-40,.16-59.95-.05-18-.19-34.08-6.75-48.63-16.77-16.79-11.57-29.21-27-36.15-46.28C2.86,228.57-.12,218.09,0,206.71c.42-37-.28-74,.29-110.92C.78,64.7,14.68,39.84,38.68,20.5,51.43,10.23,66.39,4.58,82.13,1.07,87.58-.14,93.4.08,99,.07Q152,0,205,.05c24.53.06,46.16,8.34,64.37,24.58,22,19.58,33.6,44.26,33.65,73.93.07,36.8.31,73.61-.25,110.41-.38,25.18-10.92,46.48-28.28,64.39a95.76,95.76,0,0,1-35.55,23.13,91.13,91.13,0,0,1-33.64,5.74c-18-.26-36-.07-53.95-.07Zm-18.52-99.24c22.27,0,37.27.25,52.25-.09,10.17-.22,14.46-5.43,14.34-14.49-.23-17.15,0-34.31-.07-51.47a68.33,68.33,0,0,0-1.23-13.9c-1.66-8-5.91-15.07-12.46-19-5.83-3.53-13.26-4.82-20.56-4.81-28.14.06-56.29-.14-84.44,0-9.94,0-13.61,3.63-13.78,13.72-.27,16.15-.15,32.3,0,48.46.05,6.13-.38,12.5,1.09,18.34,2.6,10.31,12.48,21.75,27.2,22.65C110.1,203,125.08,202.67,132.79,202.74Zm118-52.09c0-14.14-.07-28.28.05-42.42,0-4.47-2.45-6.84-6-8.64-3.27-1.65-5.48.67-7.51,2.38-8.28,7-17,13.36-24.46,21.3-3.92,4.18-6.23,8.89-6.13,14.76.12,7.65.39,15.32-.08,22.95-.54,8.89,3.19,15.32,9.83,20.65s13.38,10.89,20,16.48c3,2.51,5.93,4.28,9.93,2.65,4.26-1.73,4.4-5.48,4.41-9.19C250.84,177.93,250.81,164.29,250.79,150.65Z"/><path class="cls-2" d="M132.79,202.74c-7.71-.07-22.69.29-37.68-.64-14.72-.9-24.6-12.34-27.2-22.65-1.47-5.84-1-12.21-1.09-18.34-.13-16.16-.25-32.31,0-48.46C67,102.56,70.68,99,80.62,98.93c28.15-.11,56.3.09,84.44,0,7.3,0,14.73,1.28,20.56,4.81,6.55,4,10.8,11,12.46,19a68.33,68.33,0,0,1,1.23,13.9c0,17.16-.16,34.32.07,51.47.12,9.06-4.17,14.27-14.34,14.49C170.06,203,155.06,202.74,132.79,202.74Z"/><path class="cls-2" d="M250.8,150.65c0,13.64,0,27.28,0,40.92,0,3.71-.15,7.46-4.41,9.19-4,1.63-7-.14-9.93-2.65q-9.87-8.38-20-16.48c-6.64-5.33-10.37-11.76-9.83-20.65.47-7.63.2-15.3.08-22.95-.1-5.87,2.21-10.58,6.13-14.76,7.44-7.94,16.18-14.35,24.46-21.3,2-1.71,4.24-4,7.51-2.38,3.56,1.8,6,4.17,6,8.64C250.72,122.37,250.79,136.51,250.8,150.65Z"/></g></g></svg>