<svg xmlns="http://www.w3.org/2000/svg" viewBox="0 0 501.71 401.46"><g id="Layer_2" data-name="Layer 2"><g id="Layer_1-2" data-name="Layer 1"><path d="M232.5,278a175.64,175.64,0,0,1-48.23-158.26l68.54,75.43a12,12,0,0,0,16.95.81c.15-.13.29-.27.43-.41l33.51-33.51a12,12,0,0,0,0-17L162.14,3.51a12,12,0,0,0-17,0L3.51,145.17a12,12,0,0,0,0,17L37,195.62a12,12,0,0,0,17,0l.42-.44,55.45-61.32a247.16,247.16,0,0,0,71.75,195c85.63,85.63,218.39,95.46,314.92,29.5a12,12,0,0,0,3.08-16.68,11.32,11.32,0,0,0-1.4-1.69l-34.68-34.68a12,12,0,0,0-14.8-1.7A175.87,175.87,0,0,1,232.5,278Z"/></g></g></svg>