<?xml version="1.0" encoding="utf-8"?>
<!-- Generator: Adobe Illustrator 25.0.0, SVG Export Plug-In . SVG Version: 6.00 Build 0)  -->
<svg version="1.1" id="Layer_1" focusable="false" xmlns="http://www.w3.org/2000/svg" xmlns:xlink="http://www.w3.org/1999/xlink"
	 x="0px" y="0px" viewBox="0 0 721 537" style="enable-background:new 0 0 721 537;" xml:space="preserve">
<style type="text/css">
	.st0{fill:#FFFFFF;}
</style>
<path class="st0" d="M433,0c-69.6,0-126,56.4-126,126c0,56.3,82.4,158.8,113.9,196c6.4,7.5,17.8,7.5,24.2,0
	C476.6,284.8,559,182.3,559,126C559,56.4,502.6,0,433,0z M433,168c-23.2,0-42-18.8-42-42s18.8-42,42-42s42,18.8,42,42
	S456.2,168,433,168z M165.1,215.9c-12.1,4.9-20.1,16.6-20.1,29.7V496c0,11.3,11.4,19.1,21.9,14.9L305,448V214.9
	c-8.8-16-16.1-31.5-21.2-46.4L165.1,215.9z M433,359.7c-14.1,0-27.4-6.2-36.5-17c-19.7-23.2-40.6-49.6-59.5-76.7v182l192,64V266
	c-18.9,27.1-39.8,53.5-59.5,76.7C460.4,353.5,447.1,359.7,433,359.7z M699.1,161.2L561,224v288l139.9-56
	c12.2-4.9,20.1-16.6,20.1-29.7V176C721,164.7,709.6,157,699.1,161.2L699.1,161.2z"/>
</svg>
