<svg xmlns="http://www.w3.org/2000/svg" viewBox="0 0 501.94 401.7"><g id="Layer_2" data-name="Layer 2"><g id="Layer_1-2" data-name="Layer 1"><path d="M448,195.64a12,12,0,0,0,17,0l33.5-33.5a12,12,0,0,0,0-17L356.76,3.51a12,12,0,0,0-17,0L198.21,145.09a12,12,0,0,0,0,17l33.52,33.53.43.4a12,12,0,0,0,17-.81L317.41,120A175.9,175.9,0,0,1,53,303.89a12,12,0,0,0-14.8,1.71L3.52,340.28A11.77,11.77,0,0,0,2.12,342,12,12,0,0,0,5.2,358.65c96.53,66,229.28,56.13,314.92-29.5a247.13,247.13,0,0,0,71.75-195.27l55.7,61.35Z"/></g></g></svg>