<?xml version="1.0" encoding="utf-8"?>
<!-- Generator: Adobe Illustrator 25.0.0, SVG Export Plug-In . SVG Version: 6.00 Build 0)  -->
<svg version="1.1" id="Layer_1" focusable="false" xmlns="http://www.w3.org/2000/svg" xmlns:xlink="http://www.w3.org/1999/xlink"
	 x="0px" y="0px" viewBox="0 0 625 623" style="enable-background:new 0 0 625 623;" xml:space="preserve">
<style type="text/css">
	.st0{fill:#E04151;}
	.st1{fill:#FFFFFF;}
</style>
<circle class="st0" cx="311" cy="311" r="288"/>
<path class="st1" d="M368.5,318c0,36.8-29.7,66.5-66.5,66.5s-66.5-29.7-66.5-66.5s29.7-66.5,66.5-66.5S368.5,281.2,368.5,318z
	 M464.5,251.5c-36.8,0-66.5,29.7-66.5,66.5s29.7,66.5,66.5,66.5S531,354.8,531,318S501.3,251.5,464.5,251.5z M139.5,251.5
	c-36.8,0-66.5,29.7-66.5,66.5s29.7,66.5,66.5,66.5S206,354.8,206,318S176.2,251.5,139.5,251.5z"/>
</svg>
