<svg xmlns="http://www.w3.org/2000/svg" xmlns:xlink="http://www.w3.org/1999/xlink" viewBox="0 0 69.21 70.25"><defs><style>.cls-1{mask:url(#mask);filter:url(#luminosity-noclip-2);}.cls-2,.cls-6{mix-blend-mode:multiply;}.cls-2,.cls-4{fill:url(#Áåçûìÿííûé_ãðàäèåíò_13);}.cls-3{mask:url(#mask-2);}.cls-5{mask:url(#mask-3);filter:url(#luminosity-noclip-4);}.cls-6,.cls-8{fill:url(#Áåçûìÿííûé_ãðàäèåíò_11);}.cls-7{mask:url(#mask-4);}.cls-9{mask:url(#mask-5);}.cls-10{fill:#fff;}.cls-11{fill:url(#Áåçûìÿííûé_ãðàäèåíò_38);}.cls-12{mask:url(#mask-6);}.cls-13{fill:#78a2e7;}.cls-14{fill:#494949;}.cls-15{filter:url(#luminosity-noclip-3);}.cls-16{filter:url(#luminosity-noclip);}</style><filter id="luminosity-noclip" x="0" y="-8419.4" width="69.21" height="32766" filterUnits="userSpaceOnUse" color-interpolation-filters="sRGB"><feFlood flood-color="#fff" result="bg"/><feBlend in="SourceGraphic" in2="bg"/></filter><mask id="mask" x="0" y="-8419.4" width="69.21" height="32766" maskUnits="userSpaceOnUse"><g class="cls-16"/></mask><radialGradient id="Áåçûìÿííûé_ãðàäèåíò_13" cx="34.61" cy="35.47" r="34.61" gradientUnits="userSpaceOnUse"><stop offset="0" stop-color="#fff"/><stop offset="1"/></radialGradient><filter id="luminosity-noclip-2" x="0" y="0.86" width="69.21" height="69.21" filterUnits="userSpaceOnUse" color-interpolation-filters="sRGB"><feFlood flood-color="#fff" result="bg"/><feBlend in="SourceGraphic" in2="bg"/></filter><mask id="mask-2" x="0" y="0.86" width="69.21" height="69.21" maskUnits="userSpaceOnUse"><g class="cls-1"><circle class="cls-2" cx="34.61" cy="35.47" r="34.61"/></g></mask><filter id="luminosity-noclip-3" x="36.78" y="-8419.4" width="9.7" height="32766" filterUnits="userSpaceOnUse" color-interpolation-filters="sRGB"><feFlood flood-color="#fff" result="bg"/><feBlend in="SourceGraphic" in2="bg"/></filter><mask id="mask-3" x="36.78" y="-8419.4" width="9.7" height="32766" maskUnits="userSpaceOnUse"><g class="cls-15"/></mask><linearGradient id="Áåçûìÿííûé_ãðàäèåíò_11" x1="41.62" y1="38.74" x2="41.62" y2="18.84" gradientUnits="userSpaceOnUse"><stop offset="0.5" stop-color="#fff"/><stop offset="0.55" stop-color="#f9f9f9"/><stop offset="0.61" stop-color="#e8e8e8"/><stop offset="0.68" stop-color="#cbcbcb"/><stop offset="0.76" stop-color="#a4a4a4"/><stop offset="0.84" stop-color="#717171"/><stop offset="0.93" stop-color="#343434"/><stop offset="1"/></linearGradient><filter id="luminosity-noclip-4" x="36.78" y="18.84" width="9.7" height="19.9" filterUnits="userSpaceOnUse" color-interpolation-filters="sRGB"><feFlood flood-color="#fff" result="bg"/><feBlend in="SourceGraphic" in2="bg"/></filter><mask id="mask-4" x="36.78" y="18.84" width="9.7" height="19.9" maskUnits="userSpaceOnUse"><g class="cls-5"><path class="cls-6" d="M44.56,18.84v9.44a2.14,2.14,0,0,1-2.37,2.12,5.44,5.44,0,0,0-.57,0c-2.67,0-4.84,1.88-4.84,4.19s2.17,4.18,4.84,4.18,4.85-1.87,4.85-4.18V18.84Z"/></g></mask><mask id="mask-5" x="0" y="0.86" width="69.21" height="69.21" maskUnits="userSpaceOnUse"><g class="cls-3"><circle class="cls-4" cx="34.61" cy="35.47" r="34.61"/></g></mask><linearGradient id="Áåçûìÿííûé_ãðàäèåíò_38" x1="32.89" y1="41.99" x2="32.89" y2="8.26" gradientUnits="userSpaceOnUse"><stop offset="0" stop-color="#8a71fb"/><stop offset="0.06" stop-color="#8f70f0"/><stop offset="0.37" stop-color="#a96dba"/><stop offset="0.65" stop-color="#bc6b92"/><stop offset="0.87" stop-color="#c86a7a"/><stop offset="1" stop-color="#cc6971"/></linearGradient><mask id="mask-6" x="36.78" y="18.84" width="9.7" height="19.9" maskUnits="userSpaceOnUse"><g class="cls-7"><path class="cls-8" d="M44.56,18.84v9.44a2.14,2.14,0,0,1-2.37,2.12,5.44,5.44,0,0,0-.57,0c-2.67,0-4.84,1.88-4.84,4.19s2.17,4.18,4.84,4.18,4.85-1.87,4.85-4.18V18.84Z"/></g></mask></defs><g id="Layer_2" data-name="Layer 2"><g id="Ñëîé_1" data-name="Ñëîé 1"><g class="cls-9"><circle cx="34.61" cy="35.47" r="34.61"/></g><rect class="cls-10" x="9.03" width="51.16" height="51.16" rx="11.98"/><path class="cls-11" d="M45.25,8.28,27.91,11.73a1,1,0,0,0-.83,1V31.53a2.14,2.14,0,0,1-2.37,2.12,5.12,5.12,0,0,0-.56,0c-2.68,0-4.85,1.88-4.85,4.19S21.47,42,24.15,42,29,40.12,29,37.81V19.36a.51.51,0,0,1,.41-.5L43.94,16a.52.52,0,0,1,.62.51V28.28a2.14,2.14,0,0,1-2.37,2.12,5.44,5.44,0,0,0-.57,0c-2.67,0-4.84,1.88-4.84,4.19s2.17,4.18,4.84,4.18,4.85-1.87,4.85-4.18V9.28A1,1,0,0,0,45.25,8.28Z"/><g class="cls-12"><path class="cls-13" d="M44.56,18.84v9.44a2.14,2.14,0,0,1-2.37,2.12,5.44,5.44,0,0,0-.57,0c-2.67,0-4.84,1.88-4.84,4.19s2.17,4.18,4.84,4.18,4.85-1.87,4.85-4.18V18.84Z"/></g><path class="cls-14" d="M28.89,62.09v8h-.73V65.25c0-.78,0-1.62.09-2.51-.16.49-.34,1-.53,1.44l-2.36,5.89h-.68l-2.39-5.82c-.16-.39-.34-.88-.53-1.47.06.88.09,1.69.09,2.45v4.84h-.72v-8h1l2.32,5.69c.07.19.26.69.55,1.51,0-.1.11-.32.23-.68s.22-.62.29-.8l2.29-5.72Z"/><path class="cls-14" d="M35,64.31v5.76h-.65V69a2.15,2.15,0,0,1-2,1.23,2,2,0,0,1-1.45-.53,2.12,2.12,0,0,1-.54-1.57V64.31H31v3.53a2.22,2.22,0,0,0,.33,1.34,1.31,1.31,0,0,0,1.13.44A1.58,1.58,0,0,0,33.82,69a2.38,2.38,0,0,0,.48-1.52V64.31Z"/><path class="cls-14" d="M40.5,66h-.68q-.1-1.26-1.56-1.26a1.67,1.67,0,0,0-1,.26.82.82,0,0,0-.36.7.87.87,0,0,0,.07.37,1.35,1.35,0,0,0,.18.25,1.18,1.18,0,0,0,.36.18,3,3,0,0,0,.43.14l.6.15.6.14a3.48,3.48,0,0,1,.55.2,1.85,1.85,0,0,1,.53.3,1.58,1.58,0,0,1,.33.44,1.38,1.38,0,0,1,.14.62,1.54,1.54,0,0,1-.64,1.28,2.59,2.59,0,0,1-1.65.49,2.54,2.54,0,0,1-1.73-.54,2,2,0,0,1-.64-1.52h.69a1.37,1.37,0,0,0,.45,1.1,1.87,1.87,0,0,0,1.25.38,1.9,1.9,0,0,0,1.14-.31.94.94,0,0,0,.43-.81.75.75,0,0,0-.14-.47,1,1,0,0,0-.37-.32,2.57,2.57,0,0,0-.47-.19,3.51,3.51,0,0,0-.49-.13l-.11,0-.36-.08-.39-.09a3.08,3.08,0,0,1-.36-.11A2.47,2.47,0,0,1,37,67l-.28-.19a.74.74,0,0,1-.26-.27,1.26,1.26,0,0,1-.15-.33,1.37,1.37,0,0,1-.06-.42,1.42,1.42,0,0,1,.57-1.19,2.46,2.46,0,0,1,1.55-.44,2.5,2.5,0,0,1,1.58.47A1.64,1.64,0,0,1,40.5,66Z"/><path class="cls-14" d="M42.48,62.05v1.16h-.71V62.05Zm0,2.26v5.76h-.71V64.31Z"/><path class="cls-14" d="M48.67,68a2.76,2.76,0,0,1-.78,1.62,2.26,2.26,0,0,1-1.65.61,2.45,2.45,0,0,1-1.94-.82,3.11,3.11,0,0,1-.73-2.17A3.3,3.3,0,0,1,44.3,65a2.71,2.71,0,0,1,3.58-.32,2.25,2.25,0,0,1,.75,1.45h-.72a1.55,1.55,0,0,0-1.64-1.4,1.75,1.75,0,0,0-1.44.67,2.78,2.78,0,0,0-.53,1.8,2.89,2.89,0,0,0,.51,1.8,1.81,1.81,0,0,0,2.58.24A2,2,0,0,0,48,68Z"/></g></g></svg>