<svg xmlns="http://www.w3.org/2000/svg" xmlns:xlink="http://www.w3.org/1999/xlink" viewBox="0 0 69.21 73.09"><defs><style>.cls-1{mask:url(#mask);filter:url(#luminosity-noclip-2);}.cls-2{mix-blend-mode:multiply;}.cls-2,.cls-4{fill:url(#Áåçûìÿííûé_ãðàäèåíò_97);}.cls-3{mask:url(#mask-2);}.cls-5{mask:url(#mask-3);}.cls-6{fill:#fff;}.cls-7{fill:url(#Áåçûìÿííûé_ãðàäèåíò_80);}.cls-8{fill:#b4af96;}.cls-9{fill:#d2d2d2;}.cls-10{fill:#494949;}.cls-11{filter:url(#luminosity-noclip);}</style><filter id="luminosity-noclip" x="0" y="-7804.57" width="69.21" height="32766" filterUnits="userSpaceOnUse" color-interpolation-filters="sRGB"><feFlood flood-color="#fff" result="bg"/><feBlend in="SourceGraphic" in2="bg"/></filter><mask id="mask" x="0" y="-7804.57" width="69.21" height="32766" maskUnits="userSpaceOnUse"><g class="cls-11"/></mask><radialGradient id="Áåçûìÿííûé_ãðàäèåíò_97" cx="34.61" cy="35.47" r="34.61" gradientUnits="userSpaceOnUse"><stop offset="0" stop-color="#fff"/><stop offset="1"/></radialGradient><filter id="luminosity-noclip-2" x="0" y="0.86" width="69.21" height="69.21" filterUnits="userSpaceOnUse" color-interpolation-filters="sRGB"><feFlood flood-color="#fff" result="bg"/><feBlend in="SourceGraphic" in2="bg"/></filter><mask id="mask-2" x="0" y="0.86" width="69.21" height="69.21" maskUnits="userSpaceOnUse"><g class="cls-1"><circle class="cls-2" cx="34.61" cy="35.47" r="34.61"/></g></mask><mask id="mask-3" x="0" y="0.86" width="69.21" height="69.21" maskUnits="userSpaceOnUse"><g class="cls-3"><circle class="cls-4" cx="34.61" cy="35.47" r="34.61"/></g></mask><linearGradient id="Áåçûìÿííûé_ãðàäèåíò_80" x1="34.61" y1="15.76" x2="34.61" gradientUnits="userSpaceOnUse"><stop offset="0.02" stop-color="#cfb12d"/><stop offset="0.05" stop-color="#d4b737"/><stop offset="0.14" stop-color="#ddc449"/><stop offset="0.19" stop-color="#e0c84f"/><stop offset="1" stop-color="#f3d854"/></linearGradient></defs><g id="Layer_2" data-name="Layer 2"><g id="Ñëîé_1" data-name="Ñëîé 1"><g class="cls-5"><circle cx="34.61" cy="35.47" r="34.61"/></g><path class="cls-6" d="M21,51.16H48.2a12,12,0,0,0,12-11.28H9.05A12,12,0,0,0,21,51.16Z"/><path class="cls-6" d="M9,39.17v.2H60.18V28.43H9Z"/><rect class="cls-6" x="9.03" y="16.68" width="51.16" height="11.24"/><path class="cls-7" d="M60.18,12a12,12,0,0,0-12-12H21A12,12,0,0,0,9,12v3.78H60.18Z"/><rect class="cls-8" x="9.03" y="15.76" width="51.16" height="0.92"/><rect class="cls-9" x="9.03" y="27.92" width="51.16" height="0.51"/><path class="cls-9" d="M9.05,39.88H60.16c0-.17,0-.34,0-.51H9C9,39.54,9,39.71,9.05,39.88Z"/><rect class="cls-9" x="9.62" y="18.6" width="0.91" height="0.91"/><rect class="cls-9" x="11.25" y="18.6" width="0.91" height="0.91"/><rect class="cls-9" x="12.89" y="18.6" width="0.91" height="0.91"/><rect class="cls-9" x="14.52" y="18.6" width="0.91" height="0.91"/><rect class="cls-9" x="16.16" y="18.6" width="0.91" height="0.91"/><rect class="cls-9" x="17.79" y="18.6" width="0.91" height="0.91"/><rect class="cls-9" x="19.43" y="18.6" width="0.91" height="0.91"/><rect class="cls-9" x="21.06" y="18.6" width="0.91" height="0.91"/><rect class="cls-9" x="22.7" y="18.6" width="0.91" height="0.91"/><rect class="cls-9" x="24.34" y="18.6" width="0.91" height="0.91"/><rect class="cls-9" x="25.97" y="18.6" width="0.91" height="0.91"/><rect class="cls-9" x="27.61" y="18.6" width="0.91" height="0.91"/><rect class="cls-9" x="29.24" y="18.6" width="0.91" height="0.91"/><rect class="cls-9" x="30.88" y="18.6" width="0.91" height="0.91"/><rect class="cls-9" x="32.51" y="18.6" width="0.91" height="0.91"/><rect class="cls-9" x="34.15" y="18.6" width="0.91" height="0.91"/><rect class="cls-9" x="35.78" y="18.6" width="0.91" height="0.91"/><rect class="cls-9" x="37.42" y="18.6" width="0.91" height="0.91"/><rect class="cls-9" x="39.06" y="18.6" width="0.91" height="0.91"/><rect class="cls-9" x="40.69" y="18.6" width="0.91" height="0.91"/><rect class="cls-9" x="42.33" y="18.6" width="0.91" height="0.91"/><rect class="cls-9" x="43.96" y="18.6" width="0.91" height="0.91"/><rect class="cls-9" x="45.6" y="18.6" width="0.91" height="0.91"/><rect class="cls-9" x="47.23" y="18.6" width="0.91" height="0.91"/><rect class="cls-9" x="48.87" y="18.6" width="0.91" height="0.91"/><rect class="cls-9" x="50.5" y="18.6" width="0.91" height="0.91"/><rect class="cls-9" x="52.14" y="18.6" width="0.91" height="0.91"/><rect class="cls-9" x="53.78" y="18.6" width="0.91" height="0.91"/><rect class="cls-9" x="55.41" y="18.6" width="0.91" height="0.91"/><rect class="cls-9" x="57.05" y="18.6" width="0.91" height="0.91"/><rect class="cls-9" x="58.68" y="18.6" width="0.91" height="0.91"/><path class="cls-10" d="M12.78,62.36a.59.59,0,0,1-.17-.42.57.57,0,0,1,.17-.42.55.55,0,0,1,.42-.17.53.53,0,0,1,.41.17.57.57,0,0,1,.17.42.59.59,0,0,1-.17.42.53.53,0,0,1-.41.17A.55.55,0,0,1,12.78,62.36Zm.82,1.36V70h-.81V63.72Z"/><path class="cls-10" d="M15.82,69.59a1.82,1.82,0,0,1-.76-1.36h.83a1.19,1.19,0,0,0,.5.86,1.93,1.93,0,0,0,1.19.32,1.55,1.55,0,0,0,1-.31.94.94,0,0,0,.37-.77.76.76,0,0,0-.2-.53,1.63,1.63,0,0,0-.53-.32,7.56,7.56,0,0,0-.85-.26,10.28,10.28,0,0,1-1.14-.37,2,2,0,0,1-.75-.55,1.46,1.46,0,0,1-.3-1,1.4,1.4,0,0,1,.28-.85,1.81,1.81,0,0,1,.78-.62,2.66,2.66,0,0,1,1.15-.23,2.48,2.48,0,0,1,1.63.51,1.84,1.84,0,0,1,.67,1.41h-.81a1.18,1.18,0,0,0-.43-.89,1.57,1.57,0,0,0-1.08-.34,1.59,1.59,0,0,0-1,.28.86.86,0,0,0-.38.72.82.82,0,0,0,.22.6,1.57,1.57,0,0,0,.56.37,7.43,7.43,0,0,0,.9.29,11.24,11.24,0,0,1,1.08.36,1.83,1.83,0,0,1,.69.51,1.35,1.35,0,0,1,.3.88,1.53,1.53,0,0,1-.28.91,1.84,1.84,0,0,1-.77.62,2.58,2.58,0,0,1-1.14.23A2.9,2.9,0,0,1,15.82,69.59Z"/><path class="cls-10" d="M21.4,62h.93l-1,2.48h-.59Z"/><path class="cls-10" d="M24,69.33h3.29V70H23.07v-.67l3.23-4.94H23.13v-.67h4.09v.67Z"/><path class="cls-10" d="M34.08,63.72V70h-.8V68.9a1.93,1.93,0,0,1-.85.89,2.68,2.68,0,0,1-1.29.32,2.56,2.56,0,0,1-1.85-.7,2.71,2.71,0,0,1-.71-2V63.72h.8V67.3a2.19,2.19,0,0,0,.51,1.56,1.82,1.82,0,0,0,1.4.54,1.93,1.93,0,0,0,1.45-.57,2.4,2.4,0,0,0,.54-1.69V63.72Z"/><path class="cls-10" d="M40.71,64.3a2.68,2.68,0,0,1,.71,2V70h-.79V66.41a2.19,2.19,0,0,0-.51-1.56,1.84,1.84,0,0,0-1.4-.54,1.9,1.9,0,0,0-1.45.57,2.38,2.38,0,0,0-.54,1.69V70h-.81V63.72h.81v1.07a2,2,0,0,1,.86-.88,2.58,2.58,0,0,1,1.28-.31A2.55,2.55,0,0,1,40.71,64.3Z"/><path class="cls-10" d="M47.38,64a2.44,2.44,0,0,1,.95,1V63.72h.8v6.44a3,3,0,0,1-.37,1.53,2.58,2.58,0,0,1-1,1,3.17,3.17,0,0,1-1.52.37,3.37,3.37,0,0,1-2-.58,2.42,2.42,0,0,1-1-1.56H44a1.94,1.94,0,0,0,.79,1,2.49,2.49,0,0,0,1.42.39,2.17,2.17,0,0,0,1.09-.26,1.8,1.8,0,0,0,.76-.76,2.42,2.42,0,0,0,.28-1.2V68.61a2.54,2.54,0,0,1-.95,1.06,2.8,2.8,0,0,1-1.54.42,3,3,0,0,1-1.55-.4,2.87,2.87,0,0,1-1.07-1.14,4,4,0,0,1,0-3.4A2.84,2.84,0,0,1,44.29,64a3.1,3.1,0,0,1,1.55-.39A2.77,2.77,0,0,1,47.38,64ZM48,65.53a2.21,2.21,0,0,0-.85-.89A2.29,2.29,0,0,0,46,64.33a2.36,2.36,0,0,0-1.19.3,2.07,2.07,0,0,0-.84.87,2.86,2.86,0,0,0-.3,1.35A2.92,2.92,0,0,0,44,68.2a2.13,2.13,0,0,0,.84.89,2.36,2.36,0,0,0,1.19.3,2.29,2.29,0,0,0,1.18-.31A2.25,2.25,0,0,0,48,68.2a2.88,2.88,0,0,0,.31-1.34A2.81,2.81,0,0,0,48,65.53Z"/><path class="cls-10" d="M56.42,63.72V70h-.81V68.9a1.88,1.88,0,0,1-.85.89,2.62,2.62,0,0,1-1.29.32,2.55,2.55,0,0,1-1.84-.7,2.68,2.68,0,0,1-.71-2V63.72h.79V67.3a2.19,2.19,0,0,0,.51,1.56,1.84,1.84,0,0,0,1.4.54,1.9,1.9,0,0,0,1.45-.57,2.4,2.4,0,0,0,.54-1.69V63.72Z"/></g></g></svg>