<svg xmlns="http://www.w3.org/2000/svg" xmlns:xlink="http://www.w3.org/1999/xlink" viewBox="0 0 69.21 70.26"><defs><style>.cls-1{mask:url(#mask);filter:url(#luminosity-noclip-2);}.cls-2{mix-blend-mode:multiply;}.cls-2,.cls-4{fill:url(#Áåçûìÿííûé_ãðàäèåíò_97);}.cls-3{mask:url(#mask-2);}.cls-5{mask:url(#mask-3);}.cls-6{fill:#fff;}.cls-7{fill:url(#Áåçûìÿííûé_ãðàäèåíò_80);}.cls-8{fill:#b4af96;}.cls-9{fill:#d2d2d2;}.cls-10{fill:#494949;}.cls-11{filter:url(#luminosity-noclip);}</style><filter id="luminosity-noclip" x="0" y="-8321.27" width="69.21" height="32766" filterUnits="userSpaceOnUse" color-interpolation-filters="sRGB"><feFlood flood-color="#fff" result="bg"/><feBlend in="SourceGraphic" in2="bg"/></filter><mask id="mask" x="0" y="-8321.27" width="69.21" height="32766" maskUnits="userSpaceOnUse"><g class="cls-11"/></mask><radialGradient id="Áåçûìÿííûé_ãðàäèåíò_97" cx="34.61" cy="35.47" r="34.61" gradientUnits="userSpaceOnUse"><stop offset="0" stop-color="#fff"/><stop offset="1"/></radialGradient><filter id="luminosity-noclip-2" x="0" y="0.86" width="69.21" height="69.21" filterUnits="userSpaceOnUse" color-interpolation-filters="sRGB"><feFlood flood-color="#fff" result="bg"/><feBlend in="SourceGraphic" in2="bg"/></filter><mask id="mask-2" x="0" y="0.86" width="69.21" height="69.21" maskUnits="userSpaceOnUse"><g class="cls-1"><circle class="cls-2" cx="34.61" cy="35.47" r="34.61"/></g></mask><mask id="mask-3" x="0" y="0.86" width="69.21" height="69.21" maskUnits="userSpaceOnUse"><g class="cls-3"><circle class="cls-4" cx="34.61" cy="35.47" r="34.61"/></g></mask><linearGradient id="Áåçûìÿííûé_ãðàäèåíò_80" x1="34.61" y1="15.76" x2="34.61" gradientUnits="userSpaceOnUse"><stop offset="0.02" stop-color="#cfb12d"/><stop offset="0.05" stop-color="#d4b737"/><stop offset="0.14" stop-color="#ddc449"/><stop offset="0.19" stop-color="#e0c84f"/><stop offset="1" stop-color="#f3d854"/></linearGradient></defs><g id="Layer_2" data-name="Layer 2"><g id="Ñëîé_1" data-name="Ñëîé 1"><g class="cls-5"><circle cx="34.61" cy="35.47" r="34.61"/></g><path class="cls-6" d="M21,51.16H48.2a12,12,0,0,0,12-11.28H9.05A12,12,0,0,0,21,51.16Z"/><path class="cls-6" d="M9,39.17v.2H60.18V28.43H9Z"/><rect class="cls-6" x="9.03" y="16.68" width="51.16" height="11.24"/><path class="cls-7" d="M60.18,12a12,12,0,0,0-12-12H21A12,12,0,0,0,9,12v3.78H60.18Z"/><rect class="cls-8" x="9.03" y="15.76" width="51.16" height="0.92"/><rect class="cls-9" x="9.03" y="27.92" width="51.16" height="0.51"/><path class="cls-9" d="M9.05,39.88H60.16c0-.17,0-.34,0-.51H9C9,39.54,9,39.71,9.05,39.88Z"/><rect class="cls-9" x="9.62" y="18.6" width="0.91" height="0.91"/><rect class="cls-9" x="11.25" y="18.6" width="0.91" height="0.91"/><rect class="cls-9" x="12.89" y="18.6" width="0.91" height="0.91"/><rect class="cls-9" x="14.52" y="18.6" width="0.91" height="0.91"/><rect class="cls-9" x="16.16" y="18.6" width="0.91" height="0.91"/><rect class="cls-9" x="17.79" y="18.6" width="0.91" height="0.91"/><rect class="cls-9" x="19.43" y="18.6" width="0.91" height="0.91"/><rect class="cls-9" x="21.06" y="18.6" width="0.91" height="0.91"/><rect class="cls-9" x="22.7" y="18.6" width="0.91" height="0.91"/><rect class="cls-9" x="24.34" y="18.6" width="0.91" height="0.91"/><rect class="cls-9" x="25.97" y="18.6" width="0.91" height="0.91"/><rect class="cls-9" x="27.61" y="18.6" width="0.91" height="0.91"/><rect class="cls-9" x="29.24" y="18.6" width="0.91" height="0.91"/><rect class="cls-9" x="30.88" y="18.6" width="0.91" height="0.91"/><rect class="cls-9" x="32.51" y="18.6" width="0.91" height="0.91"/><rect class="cls-9" x="34.15" y="18.6" width="0.91" height="0.91"/><rect class="cls-9" x="35.78" y="18.6" width="0.91" height="0.91"/><rect class="cls-9" x="37.42" y="18.6" width="0.91" height="0.91"/><rect class="cls-9" x="39.06" y="18.6" width="0.91" height="0.91"/><rect class="cls-9" x="40.69" y="18.6" width="0.91" height="0.91"/><rect class="cls-9" x="42.33" y="18.6" width="0.91" height="0.91"/><rect class="cls-9" x="43.96" y="18.6" width="0.91" height="0.91"/><rect class="cls-9" x="45.6" y="18.6" width="0.91" height="0.91"/><rect class="cls-9" x="47.23" y="18.6" width="0.91" height="0.91"/><rect class="cls-9" x="48.87" y="18.6" width="0.91" height="0.91"/><rect class="cls-9" x="50.5" y="18.6" width="0.91" height="0.91"/><rect class="cls-9" x="52.14" y="18.6" width="0.91" height="0.91"/><rect class="cls-9" x="53.78" y="18.6" width="0.91" height="0.91"/><rect class="cls-9" x="55.41" y="18.6" width="0.91" height="0.91"/><rect class="cls-9" x="57.05" y="18.6" width="0.91" height="0.91"/><rect class="cls-9" x="58.68" y="18.6" width="0.91" height="0.91"/><path class="cls-10" d="M27.41,62.09v8h-.84l-3.71-5.36A16.59,16.59,0,0,1,21.8,63c0,.53.06,1.16.06,1.9v5.16h-.74v-8H22L25.7,67.5c.41.61.76,1.17,1,1.68,0-1.18-.06-1.88-.06-2.11v-5Z"/><path class="cls-10" d="M31.35,64.14a2.52,2.52,0,0,1,2,.83,3.25,3.25,0,0,1,.73,2.24,3.18,3.18,0,0,1-.73,2.22,2.51,2.51,0,0,1-2,.81,2.54,2.54,0,0,1-2-.82,3.68,3.68,0,0,1,0-4.45A2.55,2.55,0,0,1,31.35,64.14Zm1.46,1.26a1.83,1.83,0,0,0-1.47-.67,1.81,1.81,0,0,0-1.47.67,2.72,2.72,0,0,0-.55,1.79A2.81,2.81,0,0,0,29.86,69a1.83,1.83,0,0,0,1.5.66A1.79,1.79,0,0,0,32.82,69a3.25,3.25,0,0,0,0-3.6Z"/><path class="cls-10" d="M37.43,64.31v.57H36.24v3.66c0,.19,0,.33,0,.41a1.41,1.41,0,0,0,.07.28.35.35,0,0,0,.22.21,1.27,1.27,0,0,0,.43.06l.46,0v.6a5,5,0,0,1-.62.05c-.7,0-1.1-.22-1.2-.67a7.35,7.35,0,0,1-.07-1.26V64.88h-1v-.57h1V62.55h.7v1.76Z"/><path class="cls-10" d="M43.25,68.18a2.67,2.67,0,0,1-.83,1.53,2.69,2.69,0,0,1-3.56-.27,3.12,3.12,0,0,1-.73-2.18A3.36,3.36,0,0,1,38.87,65a2.37,2.37,0,0,1,1.9-.87,2.24,2.24,0,0,1,1.88.86,3.44,3.44,0,0,1,.65,2.15v.2H38.85A2.7,2.7,0,0,0,39.34,69a1.83,1.83,0,0,0,3.22-.84Zm-.65-1.39a2.37,2.37,0,0,0-.55-1.51,1.65,1.65,0,0,0-1.3-.55,1.57,1.57,0,0,0-1.33.58,3,3,0,0,0-.57,1.48Z"/><path class="cls-10" d="M48.41,66h-.69q-.09-1.26-1.56-1.26a1.7,1.7,0,0,0-1,.26.82.82,0,0,0-.36.7.75.75,0,0,0,.08.37,1,1,0,0,0,.17.25,1.18,1.18,0,0,0,.36.18,2.72,2.72,0,0,0,.44.14q.18.06.6.15l.59.14a3.54,3.54,0,0,1,.56.2,1.93,1.93,0,0,1,.52.3,1.58,1.58,0,0,1,.33.44,1.38,1.38,0,0,1,.14.62A1.52,1.52,0,0,1,48,69.76a2.59,2.59,0,0,1-1.65.49,2.54,2.54,0,0,1-1.73-.54A2,2,0,0,1,44,68.19h.69a1.37,1.37,0,0,0,.45,1.1,2.25,2.25,0,0,0,2.39.07.94.94,0,0,0,.43-.81.75.75,0,0,0-.14-.47,1,1,0,0,0-.37-.32,2.57,2.57,0,0,0-.47-.19,3.17,3.17,0,0,0-.49-.13l-.11,0L46,67.33l-.39-.09-.36-.11a2.47,2.47,0,0,1-.36-.14l-.28-.19a.74.74,0,0,1-.26-.27,1.26,1.26,0,0,1-.15-.33,1.37,1.37,0,0,1-.06-.42,1.42,1.42,0,0,1,.57-1.19,2.92,2.92,0,0,1,3.13,0A1.64,1.64,0,0,1,48.41,66Z"/></g></g></svg>