<svg xmlns="http://www.w3.org/2000/svg" xmlns:xlink="http://www.w3.org/1999/xlink" viewBox="0 0 69.21 83.9"><defs><style>.cls-1{mask:url(#mask);filter:url(#luminosity-noclip-2);}.cls-10,.cls-11,.cls-12,.cls-13,.cls-14,.cls-15,.cls-2,.cls-8,.cls-9{mix-blend-mode:multiply;}.cls-2,.cls-4{fill:url(#Áåçûìÿííûé_ãðàäèåíò_17);}.cls-3{mask:url(#mask-2);}.cls-5{isolation:isolate;}.cls-6{mask:url(#mask-3);}.cls-7{fill:#fff;}.cls-8{fill:#e3a33c;}.cls-9{fill:#d86a64;}.cls-10{fill:#c184af;}.cls-11{fill:#968dc3;}.cls-12{fill:#85b1de;}.cls-13{fill:#83bbb3;}.cls-14{fill:#c5d757;}.cls-15{fill:#f5e74c;}.cls-16{fill:#494949;}.cls-17{filter:url(#luminosity-noclip);}</style><filter id="luminosity-noclip" x="0" y="-7804.56" width="69.21" height="32766" filterUnits="userSpaceOnUse" color-interpolation-filters="sRGB"><feFlood flood-color="#fff" result="bg"/><feBlend in="SourceGraphic" in2="bg"/></filter><mask id="mask" x="0" y="-7804.56" width="69.21" height="32766" maskUnits="userSpaceOnUse"><g class="cls-17"/></mask><radialGradient id="Áåçûìÿííûé_ãðàäèåíò_17" cx="34.61" cy="35.47" r="34.61" gradientUnits="userSpaceOnUse"><stop offset="0" stop-color="#fff"/><stop offset="1"/></radialGradient><filter id="luminosity-noclip-2" x="0" y="0.86" width="69.21" height="69.21" filterUnits="userSpaceOnUse" color-interpolation-filters="sRGB"><feFlood flood-color="#fff" result="bg"/><feBlend in="SourceGraphic" in2="bg"/></filter><mask id="mask-2" x="0" y="0.86" width="69.21" height="69.21" maskUnits="userSpaceOnUse"><g class="cls-1"><circle class="cls-2" cx="34.61" cy="35.47" r="34.61"/></g></mask><mask id="mask-3" x="0" y="0.86" width="69.21" height="69.21" maskUnits="userSpaceOnUse"><g class="cls-3"><circle class="cls-4" cx="34.61" cy="35.47" r="34.61"/></g></mask></defs><g class="cls-5"><g id="Layer_2" data-name="Layer 2"><g id="Ñëîé_1" data-name="Ñëîé 1"><g class="cls-6"><circle cx="34.61" cy="35.47" r="34.61"/></g><rect class="cls-7" x="9.03" width="51.16" height="51.16" rx="11.98"/><path class="cls-8" d="M34.61,3.21A6.75,6.75,0,0,0,27.86,10v7.37a6.75,6.75,0,1,0,13.49,0V10A6.75,6.75,0,0,0,34.61,3.21Z"/><path class="cls-9" d="M18.79,9.76a6.75,6.75,0,0,0,0,9.55L24,24.52A6.75,6.75,0,1,0,33.54,15L28.33,9.76A6.75,6.75,0,0,0,18.79,9.76Z"/><path class="cls-10" d="M12.24,25.58A6.75,6.75,0,0,0,19,32.33h7.36a6.75,6.75,0,0,0,0-13.5H19A6.75,6.75,0,0,0,12.24,25.58Z"/><path class="cls-11" d="M18.79,41.39a6.74,6.74,0,0,0,9.54,0l5.21-5.2A6.75,6.75,0,0,0,24,26.64l-5.21,5.21A6.74,6.74,0,0,0,18.79,41.39Z"/><path class="cls-12" d="M34.61,48a6.75,6.75,0,0,0,6.74-6.75V33.83a6.75,6.75,0,1,0-13.49,0V41.2A6.75,6.75,0,0,0,34.61,48Z"/><path class="cls-13" d="M50.42,41.39a6.74,6.74,0,0,0,0-9.54l-5.21-5.21a6.75,6.75,0,1,0-9.54,9.55l5.21,5.2A6.74,6.74,0,0,0,50.42,41.39Z"/><path class="cls-14" d="M57,25.58a6.75,6.75,0,0,0-6.75-6.75H42.86a6.75,6.75,0,0,0,0,13.5h7.36A6.75,6.75,0,0,0,57,25.58Z"/><path class="cls-15" d="M50.42,9.76a6.75,6.75,0,0,0-9.54,0L35.67,15a6.75,6.75,0,1,0,9.54,9.55l5.21-5.21A6.75,6.75,0,0,0,50.42,9.76Z"/><path class="cls-16" d="M12.25,69.33h3.29V70H11.33v-.67l3.23-5H11.38v-.67h4.1v.67Z"/><path class="cls-16" d="M22.34,63.71V70h-.81V68.89a1.9,1.9,0,0,1-.85.9,2.62,2.62,0,0,1-1.29.31,2.51,2.51,0,0,1-1.84-.7,2.7,2.7,0,0,1-.71-2V63.71h.79v3.58a2.21,2.21,0,0,0,.51,1.57,2.09,2.09,0,0,0,2.85,0,2.37,2.37,0,0,0,.54-1.69V63.71Z"/><path class="cls-16" d="M29,64.29a2.73,2.73,0,0,1,.71,2V70h-.79V66.41a2.2,2.2,0,0,0-.51-1.57,2.09,2.09,0,0,0-2.85,0A2.37,2.37,0,0,0,25,66.57V70h-.81V63.71H25v1.07a2.09,2.09,0,0,1,.86-.88,2.69,2.69,0,0,1,1.28-.3A2.55,2.55,0,0,1,29,64.29Z"/><path class="cls-16" d="M35.64,64a2.43,2.43,0,0,1,1,1V63.71h.8v6.45A3.09,3.09,0,0,1,37,71.69a2.64,2.64,0,0,1-1,1,3.19,3.19,0,0,1-1.52.36,3.36,3.36,0,0,1-2-.57,2.48,2.48,0,0,1-1-1.57h.8A1.93,1.93,0,0,0,33,72a2.47,2.47,0,0,0,1.42.39,2.31,2.31,0,0,0,1.09-.26,1.82,1.82,0,0,0,.76-.77,2.46,2.46,0,0,0,.28-1.19V68.6a2.56,2.56,0,0,1-1,1.07,2.8,2.8,0,0,1-1.54.42,3.08,3.08,0,0,1-1.55-.4,2.87,2.87,0,0,1-1.07-1.14,3.71,3.71,0,0,1-.38-1.71,3.63,3.63,0,0,1,.38-1.69A2.78,2.78,0,0,1,32.55,64a3,3,0,0,1,1.55-.4A2.8,2.8,0,0,1,35.64,64Zm.63,1.48a2.19,2.19,0,0,0-.84-.89,2.39,2.39,0,0,0-1.18-.31,2.43,2.43,0,0,0-1.2.3,2.11,2.11,0,0,0-.83.87,2.86,2.86,0,0,0-.31,1.35,2.93,2.93,0,0,0,.31,1.36,2.14,2.14,0,0,0,.83.88,2.44,2.44,0,0,0,1.2.31,2.39,2.39,0,0,0,1.18-.31,2.19,2.19,0,0,0,.84-.89,2.94,2.94,0,0,0,0-2.67Z"/><path class="cls-16" d="M44.89,67.17H39.68A2.42,2.42,0,0,0,40,68.38a2,2,0,0,0,.81.77,2.45,2.45,0,0,0,1.11.26A2.26,2.26,0,0,0,43.27,69a1.79,1.79,0,0,0,.7-1h.86a2.73,2.73,0,0,1-1,1.5,3,3,0,0,1-1.89.58,3.13,3.13,0,0,1-1.59-.4,2.79,2.79,0,0,1-1.1-1.13,3.54,3.54,0,0,1-.4-1.71,3.48,3.48,0,0,1,.4-1.71A2.7,2.7,0,0,1,40.35,64a3.24,3.24,0,0,1,1.6-.39,3.07,3.07,0,0,1,1.57.39,2.72,2.72,0,0,1,1,1.06,3,3,0,0,1,.36,1.46A5.14,5.14,0,0,1,44.89,67.17Zm-1.07-1.86a1.93,1.93,0,0,0-.8-.75,2.58,2.58,0,0,0-1.11-.25,2.2,2.2,0,0,0-1.53.58,2.3,2.3,0,0,0-.7,1.62H44.1A2.27,2.27,0,0,0,43.82,65.31Z"/><path class="cls-16" d="M46.82,69.33h3.29V70H45.89v-.67l3.24-5H46v-.67h4.1v.67Z"/><path class="cls-16" d="M51.48,65.15A2.78,2.78,0,0,1,52.55,64a3,3,0,0,1,1.55-.4,2.81,2.81,0,0,1,1.55.42,2.35,2.35,0,0,1,.93,1V63.71h.81V70h-.81V68.6a2.47,2.47,0,0,1-.94,1.07,2.81,2.81,0,0,1-1.55.42,3.07,3.07,0,0,1-1.54-.4,2.87,2.87,0,0,1-1.07-1.14,3.59,3.59,0,0,1-.38-1.71A3.51,3.51,0,0,1,51.48,65.15Zm4.79.37a2.25,2.25,0,0,0-.84-.89,2.47,2.47,0,0,0-2.38,0,2.11,2.11,0,0,0-.83.87,2.75,2.75,0,0,0-.31,1.35,2.81,2.81,0,0,0,.31,1.36,2.14,2.14,0,0,0,.83.88,2.44,2.44,0,0,0,2.38,0,2.25,2.25,0,0,0,.84-.89,3,3,0,0,0,0-2.67Z"/><path class="cls-16" d="M25.59,78.1a2.69,2.69,0,0,1,.71,2V83.8h-.79V80.21A2.19,2.19,0,0,0,25,78.65a1.84,1.84,0,0,0-1.4-.54,1.9,1.9,0,0,0-1.45.57,2.41,2.41,0,0,0-.54,1.7V83.8H20.8V77.52h.81v1.07a2.14,2.14,0,0,1,.86-.88,2.69,2.69,0,0,1,1.28-.3A2.55,2.55,0,0,1,25.59,78.1Z"/><path class="cls-16" d="M28.1,79a2.82,2.82,0,0,1,1.07-1.12,3,3,0,0,1,1.55-.4,2.87,2.87,0,0,1,1.55.41,2.45,2.45,0,0,1,.94,1.06V77.52H34V83.8h-.8V82.41a2.56,2.56,0,0,1-1,1.07,2.81,2.81,0,0,1-1.55.42,3,3,0,0,1-1.54-.41,2.75,2.75,0,0,1-1.07-1.14,4,4,0,0,1,0-3.4Zm4.8.38a2.21,2.21,0,0,0-.85-.89,2.39,2.39,0,0,0-1.18-.31,2.36,2.36,0,0,0-1.19.3,2.07,2.07,0,0,0-.84.87,3.19,3.19,0,0,0,0,2.7,2.07,2.07,0,0,0,.84.89,2.36,2.36,0,0,0,1.19.3,2.29,2.29,0,0,0,1.18-.31A2.19,2.19,0,0,0,32.9,82a2.88,2.88,0,0,0,.31-1.34A2.84,2.84,0,0,0,32.9,79.33Z"/><path class="cls-16" d="M45.14,78.1a2.76,2.76,0,0,1,.69,2V83.8H45V80.21a2.23,2.23,0,0,0-.5-1.56,1.73,1.73,0,0,0-1.34-.54,1.79,1.79,0,0,0-1.42.59,2.46,2.46,0,0,0-.53,1.7v3.4h-.79V80.21a2.23,2.23,0,0,0-.5-1.56,1.75,1.75,0,0,0-1.36-.54,1.77,1.77,0,0,0-1.41.59,2.46,2.46,0,0,0-.53,1.7v3.4h-.81V77.52h.81V78.6a2.09,2.09,0,0,1,.85-.89,2.54,2.54,0,0,1,1.23-.3,2.63,2.63,0,0,1,1.44.39A2.21,2.21,0,0,1,41.07,79a2.16,2.16,0,0,1,.87-1.15,2.53,2.53,0,0,1,1.39-.39A2.47,2.47,0,0,1,45.14,78.1Z"/><path class="cls-16" d="M47.6,76.16a.6.6,0,0,1,0-.84.61.61,0,0,1,.42-.17.57.57,0,0,1,.41.17.6.6,0,0,1-.41,1A.58.58,0,0,1,47.6,76.16Zm.82,1.36V83.8h-.8V77.52Z"/></g></g></g></svg>