<svg xmlns="http://www.w3.org/2000/svg" xmlns:xlink="http://www.w3.org/1999/xlink" viewBox="0 0 69.21 70.25"><defs><style>.cls-1{mask:url(#mask);filter:url(#luminosity-noclip-2);}.cls-10,.cls-11,.cls-12,.cls-13,.cls-14,.cls-15,.cls-2,.cls-8,.cls-9{mix-blend-mode:multiply;}.cls-2,.cls-4{fill:url(#Áåçûìÿííûé_ãðàäèåíò_17);}.cls-3{mask:url(#mask-2);}.cls-5{isolation:isolate;}.cls-6{mask:url(#mask-3);}.cls-7{fill:#fff;}.cls-8{fill:#e3a33c;}.cls-9{fill:#d86a64;}.cls-10{fill:#c184af;}.cls-11{fill:#968dc3;}.cls-12{fill:#85b1de;}.cls-13{fill:#83bbb3;}.cls-14{fill:#c5d757;}.cls-15{fill:#f5e74c;}.cls-16{fill:#494949;}.cls-17{filter:url(#luminosity-noclip);}</style><filter id="luminosity-noclip" x="0" y="-8419.4" width="69.21" height="32766" filterUnits="userSpaceOnUse" color-interpolation-filters="sRGB"><feFlood flood-color="#fff" result="bg"/><feBlend in="SourceGraphic" in2="bg"/></filter><mask id="mask" x="0" y="-8419.4" width="69.21" height="32766" maskUnits="userSpaceOnUse"><g class="cls-17"/></mask><radialGradient id="Áåçûìÿííûé_ãðàäèåíò_17" cx="34.61" cy="35.47" r="34.61" gradientUnits="userSpaceOnUse"><stop offset="0" stop-color="#fff"/><stop offset="1"/></radialGradient><filter id="luminosity-noclip-2" x="0" y="0.86" width="69.21" height="69.21" filterUnits="userSpaceOnUse" color-interpolation-filters="sRGB"><feFlood flood-color="#fff" result="bg"/><feBlend in="SourceGraphic" in2="bg"/></filter><mask id="mask-2" x="0" y="0.86" width="69.21" height="69.21" maskUnits="userSpaceOnUse"><g class="cls-1"><circle class="cls-2" cx="34.61" cy="35.47" r="34.61"/></g></mask><mask id="mask-3" x="0" y="0.86" width="69.21" height="69.21" maskUnits="userSpaceOnUse"><g class="cls-3"><circle class="cls-4" cx="34.61" cy="35.47" r="34.61"/></g></mask></defs><g class="cls-5"><g id="Layer_2" data-name="Layer 2"><g id="Ñëîé_1" data-name="Ñëîé 1"><g class="cls-6"><circle cx="34.61" cy="35.47" r="34.61"/></g><rect class="cls-7" x="9.03" width="51.16" height="51.16" rx="11.98"/><path class="cls-8" d="M34.61,3.21A6.75,6.75,0,0,0,27.86,10v7.37a6.75,6.75,0,1,0,13.49,0V10A6.75,6.75,0,0,0,34.61,3.21Z"/><path class="cls-9" d="M18.79,9.76a6.75,6.75,0,0,0,0,9.55L24,24.52A6.75,6.75,0,1,0,33.54,15L28.33,9.76A6.75,6.75,0,0,0,18.79,9.76Z"/><path class="cls-10" d="M12.24,25.58A6.75,6.75,0,0,0,19,32.33h7.36a6.75,6.75,0,0,0,0-13.5H19A6.75,6.75,0,0,0,12.24,25.58Z"/><path class="cls-11" d="M18.79,41.39a6.74,6.74,0,0,0,9.54,0l5.21-5.2A6.75,6.75,0,0,0,24,26.64l-5.21,5.21A6.74,6.74,0,0,0,18.79,41.39Z"/><path class="cls-12" d="M34.61,48a6.75,6.75,0,0,0,6.74-6.75V33.83a6.75,6.75,0,1,0-13.49,0V41.2A6.75,6.75,0,0,0,34.61,48Z"/><path class="cls-13" d="M50.42,41.39a6.74,6.74,0,0,0,0-9.54l-5.21-5.21a6.75,6.75,0,1,0-9.54,9.55l5.21,5.2A6.74,6.74,0,0,0,50.42,41.39Z"/><path class="cls-14" d="M57,25.58a6.75,6.75,0,0,0-6.75-6.75H42.86a6.75,6.75,0,0,0,0,13.5h7.36A6.75,6.75,0,0,0,57,25.58Z"/><path class="cls-15" d="M50.42,9.76a6.75,6.75,0,0,0-9.54,0L35.67,15a6.75,6.75,0,1,0,9.54,9.55l5.21-5.21A6.75,6.75,0,0,0,50.42,9.76Z"/><path class="cls-16" d="M18.36,62.09h3.42a2.75,2.75,0,0,1,1.83.57,2.05,2.05,0,0,1,.68,1.67,2.18,2.18,0,0,1-.68,1.74,2.76,2.76,0,0,1-1.85.59H19.12v3.41h-.76Zm.76.65V66h2.43A2.4,2.4,0,0,0,23,65.63a1.43,1.43,0,0,0,.55-1.24,1.51,1.51,0,0,0-.5-1.24,2.15,2.15,0,0,0-1.41-.41Z"/><path class="cls-16" d="M26,62.09c0,1.91,0,3,0,3.31a2.08,2.08,0,0,1,2-1.24,2,2,0,0,1,1.51.55A2.18,2.18,0,0,1,30,66.26v3.81h-.71V66.35c0-1.06-.49-1.59-1.48-1.59a1.55,1.55,0,0,0-1.37.63A2.77,2.77,0,0,0,26,67v3h-.69v-8Z"/><path class="cls-16" d="M33.74,64.14a2.52,2.52,0,0,1,2,.83,3.25,3.25,0,0,1,.73,2.24,3.18,3.18,0,0,1-.73,2.22,2.53,2.53,0,0,1-2,.81,2.58,2.58,0,0,1-2-.82,3.72,3.72,0,0,1,0-4.45A2.59,2.59,0,0,1,33.74,64.14ZM35.2,65.4a1.83,1.83,0,0,0-1.47-.67,1.81,1.81,0,0,0-1.47.67,2.72,2.72,0,0,0-.55,1.79A2.81,2.81,0,0,0,32.25,69a1.83,1.83,0,0,0,1.5.66A1.79,1.79,0,0,0,35.21,69a3.3,3.3,0,0,0,0-3.6Z"/><path class="cls-16" d="M39.82,64.31v.57H38.63v3.66c0,.19,0,.33,0,.41a1.41,1.41,0,0,0,.07.28.33.33,0,0,0,.22.21,1.23,1.23,0,0,0,.43.06l.46,0v.6a5.12,5.12,0,0,1-.62.05c-.7,0-1.1-.22-1.2-.67a6.4,6.4,0,0,1-.07-1.26V64.88h-1v-.57h1V62.55h.7v1.76Z"/><path class="cls-16" d="M43.29,64.14a2.52,2.52,0,0,1,2,.83,3.75,3.75,0,0,1,0,4.46,2.85,2.85,0,0,1-4,0,3.68,3.68,0,0,1,0-4.45A2.57,2.57,0,0,1,43.29,64.14Zm1.46,1.26a1.95,1.95,0,0,0-2.94,0,3.22,3.22,0,0,0,0,3.6,1.82,1.82,0,0,0,1.49.66A1.78,1.78,0,0,0,44.76,69a2.78,2.78,0,0,0,.54-1.8A2.74,2.74,0,0,0,44.75,65.4Z"/><path class="cls-16" d="M51.21,66h-.68q-.11-1.26-1.56-1.26A1.67,1.67,0,0,0,48,65a.81.81,0,0,0-.37.7.87.87,0,0,0,.08.37.8.8,0,0,0,.18.25,1.11,1.11,0,0,0,.35.18,3.07,3.07,0,0,0,.44.14q.18.06.6.15l.59.14a3.54,3.54,0,0,1,.56.2,1.93,1.93,0,0,1,.52.3,1.42,1.42,0,0,1,.47,1.06,1.53,1.53,0,0,1-.63,1.28,2.62,2.62,0,0,1-1.66.49,2.52,2.52,0,0,1-1.72-.54,2,2,0,0,1-.64-1.52h.68a1.37,1.37,0,0,0,.45,1.1,2.27,2.27,0,0,0,2.4.07,1,1,0,0,0,.43-.81.82.82,0,0,0-.14-.47,1,1,0,0,0-.38-.32,2.32,2.32,0,0,0-.47-.19,3.36,3.36,0,0,0-.48-.13l-.11,0-.36-.08-.4-.09L48,67.13a1.91,1.91,0,0,1-.35-.14l-.29-.19a.83.83,0,0,1-.26-.27A1.72,1.72,0,0,1,47,66.2a1.37,1.37,0,0,1-.07-.42,1.42,1.42,0,0,1,.57-1.19,2.94,2.94,0,0,1,3.14,0A1.67,1.67,0,0,1,51.21,66Z"/></g></g></g></svg>