<?xml version="1.0" encoding="utf-8"?>
<!-- Generator: Adobe Illustrator 24.3.0, SVG Export Plug-In . SVG Version: 6.00 Build 0)  -->
<svg version="1.1" id="Layer_1" xmlns="http://www.w3.org/2000/svg" xmlns:xlink="http://www.w3.org/1999/xlink" x="0px" y="0px"
	 viewBox="0 0 2300.3 2300.3" style="enable-background:new 0 0 2300.3 2300.3;" xml:space="preserve">
<style type="text/css">
	.st0{fill:#FFFFFF;stroke:#000000;stroke-miterlimit:10;}
	.st1{fill:none;}
	.st2{stroke:#FFFFFF;stroke-width:3;stroke-miterlimit:10;}
	.st3{fill:none;stroke:#000000;stroke-width:3;stroke-miterlimit:10;}
</style>
<rect x="0.5" y="0.5" class="st0" width="2299.3" height="2299.3"/>
<g id="Layer_2-2">
	<circle class="st1" cx="1150.2" cy="1150.2" r="394.5"/>
	<path class="st2" d="M755.7,1150.2c0,32.1,3.8,63.4,11.1,93.3h332.4L879.6,863.1C803.3,935.1,755.7,1037.1,755.7,1150.2z"/>
	<path class="st2" d="M1048.6,1531.5l165.7-287H767C801.3,1384.2,910,1494.7,1048.6,1531.5z"/>
	<path class="st2" d="M1431.7,1425.1c69.9-71.2,113-168.7,113-276.4c0-34.7-4.5-68.3-12.9-100.3h-317.6L1431.7,1425.1z"/>
	<circle class="st3" cx="1150.2" cy="1150.2" r="405"/>
	<path class="st2" d="M1269.7,1146.2l-221.5,383.7c32.5,8.7,66.7,13.3,102,13.3c109.9,0,209.3-45,280.9-117.5L1269.7,1146.2z"/>
	<path class="st2" d="M1531.6,1048.9c-35.3-133-138.2-238.4-269.8-277.2l-160,277.2H1531.6z"/>
	<path class="st2" d="M1150.2,755.7c-104.4,0-199.4,40.6-270,106.9l163.5,283.1l216.2-374.5C1225.1,761.1,1188.3,755.7,1150.2,755.7
		z"/>
</g>
</svg>
