{
    "asset" : {
        "generator" : "Khronos glTF Blender I/O v1.3.48",
        "version" : "2.0"
    },
    "scene" : 0,
    "scenes" : [
        {
            "name" : "Scene",
            "nodes" : [
                0
            ]
        }
    ],
    "nodes" : [
        {
            "mesh" : 0,
            "name" : "KidDesperate",
            "rotation" : [
                0.7071068286895752,
                0,
                0,
                0.7071067094802856
            ]
        }
    ],
    "materials" : [
        {
            "doubleSided" : true,
            "emissiveFactor" : [
                0,
                0,
                0
            ],
            "name" : "Skin",
            "pbrMetallicRoughness" : {
                "baseColorFactor" : [
                    0.7385500073432922,
                    0.5568600296974182,
                    0.4429999887943268,
                    1
                ],
                "metallicFactor" : 0,
                "roughnessFactor" : 0.699999988079071
            }
        }
    ],
    "meshes" : [
        {
            "name" : "KidDesperate",
            "primitives" : [
                {
                    "attributes" : {
                        "POSITION" : 0,
                        "NORMAL" : 1,
                        "TEXCOORD_0" : 2
                    },
                    "indices" : 3,
                    "material" : 0
                }
            ]
        }
    ],
    "accessors" : [
        {
            "bufferView" : 0,
            "componentType" : 5126,
            "count" : 3030,
            "max" : [
                0.7474960088729858,
                0.40089499950408936,
                0.5026609897613525
            ],
            "min" : [
                -0.7627379894256592,
                -0.2712880074977875,
                -0.6404629945755005
            ],
            "type" : "VEC3"
        },
        {
            "bufferView" : 1,
            "componentType" : 5126,
            "count" : 3030,
            "type" : "VEC3"
        },
        {
            "bufferView" : 2,
            "componentType" : 5126,
            "count" : 3030,
            "type" : "VEC2"
        },
        {
            "bufferView" : 3,
            "componentType" : 5123,
            "count" : 4554,
            "type" : "SCALAR"
        }
    ],
    "bufferViews" : [
        {
            "buffer" : 0,
            "byteLength" : 36360,
            "byteOffset" : 0
        },
        {
            "buffer" : 0,
            "byteLength" : 36360,
            "byteOffset" : 36360
        },
        {
            "buffer" : 0,
            "byteLength" : 24240,
            "byteOffset" : 72720
        },
        {
            "buffer" : 0,
            "byteLength" : 9108,
            "byteOffset" : 96960
        }
    ],
    "buffers" : [
        {
            "byteLength" : 106068,
            "uri" : "data:application/octet-stream;base64,"
        }
    ]
}
