{
    "asset" : {
        "generator" : "Khronos glTF Blender I/O v1.3.48",
        "version" : "2.0"
    },
    "scene" : 0,
    "scenes" : [
        {
            "name" : "Scene",
            "nodes" : [
                0
            ]
        }
    ],
    "nodes" : [
        {
            "mesh" : 0,
            "name" : "KidSwimming",
            "rotation" : [
                0.7071068286895752,
                0,
                0,
                0.7071067094802856
            ]
        }
    ],
    "materials" : [
        {
            "doubleSided" : true,
            "emissiveFactor" : [
                0,
                0,
                0
            ],
            "name" : "Skin",
            "pbrMetallicRoughness" : {
                "baseColorFactor" : [
                    0.5903279781341553,
                    0.4466719925403595,
                    0.3561609983444214,
                    1
                ],
                "metallicFactor" : 0,
                "roughnessFactor" : 0.6732679605484009
            }
        }
    ],
    "meshes" : [
        {
            "name" : "KidSwimming",
            "primitives" : [
                {
                    "attributes" : {
                        "POSITION" : 0,
                        "NORMAL" : 1,
                        "TEXCOORD_0" : 2
                    },
                    "indices" : 3,
                    "material" : 0
                }
            ]
        }
    ],
    "accessors" : [
        {
            "bufferView" : 0,
            "componentType" : 5126,
            "count" : 2916,
            "max" : [
                0.443789005279541,
                0.8832449913024902,
                0.33096998929977417
            ],
            "min" : [
                -0.5320860147476196,
                -1.0592809915542603,
                -0.3791170120239258
            ],
            "type" : "VEC3"
        },
        {
            "bufferView" : 1,
            "componentType" : 5126,
            "count" : 2916,
            "type" : "VEC3"
        },
        {
            "bufferView" : 2,
            "componentType" : 5126,
            "count" : 2916,
            "type" : "VEC2"
        },
        {
            "bufferView" : 3,
            "componentType" : 5123,
            "count" : 4386,
            "type" : "SCALAR"
        }
    ],
    "bufferViews" : [
        {
            "buffer" : 0,
            "byteLength" : 34992,
            "byteOffset" : 0
        },
        {
            "buffer" : 0,
            "byteLength" : 34992,
            "byteOffset" : 34992
        },
        {
            "buffer" : 0,
            "byteLength" : 23328,
            "byteOffset" : 69984
        },
        {
            "buffer" : 0,
            "byteLength" : 8772,
            "byteOffset" : 93312
        }
    ],
    "buffers" : [
        {
            "byteLength" : 102084,
            "uri" : "data:application/octet-stream;base64,"
        }
    ]
}
